/* XPM */
static char *result[] = {
/* columns rows colors chars-per-pixel */
"40 40 82 1 ",
"  c #020202",
". c #0B0A0B",
"X c #100F0F",
"o c #0F0F10",
"O c #151315",
"+ c #181717",
"@ c #151B17",
"# c #181917",
"$ c #171719",
"% c #1A161A",
"& c #161B18",
"* c #1B1B1B",
"= c #1F201D",
"- c #1F1F20",
"; c #221E22",
": c #242224",
"> c #272824",
", c #282927",
"< c #292529",
"1 c #2D2C2D",
"2 c #2E2C30",
"3 c #332D33",
"4 c #343334",
"5 c #353B36",
"6 c #373338",
"7 c #3C353C",
"8 c #3B3B3B",
"9 c #40363F",
"0 c #403D3F",
"q c #3E403D",
"w c #423741",
"e c #443C44",
"r c #473F48",
"t c #493F49",
"y c #454544",
"u c #474249",
"i c #4A434C",
"p c #4A4E49",
"a c #4E4650",
"s c #4E4F50",
"d c #534754",
"f c #534955",
"g c #574D58",
"h c #584E59",
"j c #535553",
"k c #535E54",
"l c #595B55",
"z c #585759",
"x c #585B58",
"c c #576357",
"v c #5F625E",
"b c #635564",
"n c #6C5D6D",
"m c #616762",
"M c #646B64",
"N c #6C736B",
"B c #6F7A6D",
"V c #736374",
"C c #7A697B",
"Z c #6F7C73",
"A c #757572",
"S c #748677",
"D c #79857A",
"F c #7C8D7E",
"G c #806D81",
"H c #7D8E81",
"J c #7E9282",
"K c #839687",
"L c #839A87",
"P c #839788",
"I c #849C8A",
"U c #87A28F",
"Y c #8AA693",
"T c #8CAA96",
"R c #8DAB99",
"E c #90AE9B",
"W c #92B39E",
"Q c #93B5A0",
"! c #95BAA4",
"~ c #98BFA7",
"^ c #99BEA8",
"/ c None",
/* pixels */
"////////////////////////////////////////",
"////////////////////////////////////////",
"///////////////=////////=///////////////",
"//////////////%#///////O+%//////////////",
"///////////// ,6///////18%//////////////",
"///////////// 97///////1i://////////////",
"///////////// wO/////// 3;//////////////",
"////////////%7e/////////1t://///////////",
"//////*/////#w1//////////e</////////////",
"////// X////+4*//////////3-/////. //////",
"//////. /////;://////////:%//// .///////",
"///////> ./// 7/////////i;///: .////////",
"//////// 1.// :./////// %O// **.////////",
"/////////.2o /.2o      -*/  :*//////////",
"//////////*w6*/# :3ef7% ,,:w<1//////////",
"///////////%e4% *ebVbu2O -e3O///////////",
"////////////3d4>:gCCVh3>:ee1////////////",
"/////////////rulqihzhi6psi4/////////////",
"///////////// 3SFq%&@&cFM*//////////////",
"//////////////yNR^RIIW~Km///////////////",
"/////////....:4MJW!!!!YFj4&...//////////",
"//////    :1egnAYYW~^RRLAbg71%   ///////",
"////////////3:exJT!WQQRZf4;0////////////",
"//////////////%yZUTTRTLm5%//////////////",
"//////////////.1MJYETUFj*///////////////",
"//////////////* cT!YR!J5.///////////////",
"///////////// f;5SJFFJM>i2//////////////",
"///////////// 9O cRJTUq 3;//////////////",
"/////////////r</ qBmNm,X:6//////////////",
"/////////////6*//,pjl8>//1</////////////",
"////////////%+#///,21&///-X/////////////",
"////////////: /////#%////..3////////////",
"/////////// :O///////////.-+////////////",
"///////////  /////////////. ////////////",
"//////////% ///////////////* ///////////",
"//////////O ///////////////* ///////////",
"////////////////////////////////////////",
"////////////////////////////////////////",
"////////////////////////////////////////",
"////////////////////////////////////////"
};
