/* XPM */
static char *result[] = {
/* columns rows colors chars-per-pixel */
"40 40 30 1 ",
"  c #A962FA",
". c #AE72FA",
"X c #AE73FA",
"o c #AF74FA",
"O c #AF76FA",
"+ c #B07AFA",
"@ c #B17DFA",
"# c #B17EFA",
"$ c #B486FA",
"% c #B487FA",
"& c #B78FFA",
"* c #BA98FA",
"= c #BFAAFA",
"- c #C09AFB",
"; c #C4A3FB",
": c #C9ADFB",
"> c #CEB7FC",
", c #CFB7FC",
"< c #D7CAFC",
"1 c #DBCBFD",
"2 c #DFD5FD",
"3 c #E7E0FE",
"4 c #EBE5FE",
"5 c #EFEAFE",
"6 c #F0EBFE",
"7 c #F3EFFE",
"8 c #F5F2FE",
"9 c #F9F7FF",
"0 c white",
"q c None",
/* pixels */
"qqqqqqqqqqqqqqqqqqqqqqqqqqqqqqqqqqqqqqqq",
"qqqqqqqqqqqqqqqqqqqq qqqqqqqqqqqqqqqqqqq",
"qqqqqqqqqqqqqqqqqqq  qqqqqqqqqqqqqqqqqqq",
"qqqqqqqqqqqqqqqqqq &= qqqqqqqqqqqqqqqqqq",
"qqqqqqqqqqqqqqqqqq &= qqqqqqqqqqqqqqqqqq",
"qqqqqqqqqqqqqqqqqq &= qqqqqqqqqqqqqqqqqq",
"qqqqqqqqqqqqqqqq  =30=@ qqqqqqqqqqqqqqqq",
"qqqqqqqqqqqqqqqq  =30=@ qqqqqqqqqqqqqqqq",
"qqqqqqqqqqqqqqqq  =30=@ qqqqqqqqqqqqqqqq",
"qqqqqqqqqqqqqqqq  =30=@ qqqqqqqqqqqqqqqq",
"qqqqqqqqqqqqqqq #$2702;$ qqqqqqqqqqqqqqq",
"qqqqqqqqqqqqqqq &=0000<= qqqqqqqqqqqqqqq",
"qqqqqqqqqqqqqqq &=0000<= qqqqqqqqqqqqqqq",
"qqqqqqqqqqqqqq $,2000042$Oqqqqqqqqqqqqqq",
"qqqqqqqqqqqqq  =30000000=@ qqqqqqqqqqqqq",
"qqqqqqqqqq   $=0000000000<*   qqqqqqqqqq",
"qqqqqq    #&&,3000000000061&&%    qqqqqq",
"qqqqqq    $==20000000000005==*    qqqqqq",
"qqq   ====20000000000000000005====@  qqq",
"qq &&&3333700000000000000000093333:&&.qq",
"q  ===0000000000000000000000000000<==o q",
"qqq   ====20000000000000000005====@  qqq",
"qqqqqq@@@@;<<40000000000008<<>@@@@Xqqqqq",
"qqqqqq    $==20000000000005==*    qqqqqq",
"qqqqqqqqqq   $=0000000000<*   qqqqqqqqqq",
"qqqqqqqqqqqqqO@<60000000<-+qqqqqqqqqqqqq",
"qqqqqqqqqqqqqq *15000085*+ qqqqqqqqqqqqq",
"qqqqqqqqqqqqqqq &=0000<= qqqqqqqqqqqqqqq",
"qqqqqqqqqqqqqqq &=0000<= qqqqqqqqqqqqqqq",
"qqqqqqqqqqqqqqq %*5905>* qqqqqqqqqqqqqqq",
"qqqqqqqqqqqqqqqq  =30=@ qqqqqqqqqqqqqqqq",
"qqqqqqqqqqqqqqqq  =30=@ qqqqqqqqqqqqqqqq",
"qqqqqqqqqqqqqqqq  =30=@ qqqqqqqqqqqqqqqq",
"qqqqqqqqqqqqqqqq  =30=@ qqqqqqqqqqqqqqqq",
"qqqqqqqqqqqqqqqqqq@:<@Xqqqqqqqqqqqqqqqqq",
"qqqqqqqqqqqqqqqqqq &= qqqqqqqqqqqqqqqqqq",
"qqqqqqqqqqqqqqqqqq &= qqqqqqqqqqqqqqqqqq",
"qqqqqqqqqqqqqqqqqqq.oqqqqqqqqqqqqqqqqqqq",
"qqqqqqqqqqqqqqqqqqqq qqqqqqqqqqqqqqqqqqq",
"qqqqqqqqqqqqqqqqqqqqqqqqqqqqqqqqqqqqqqqq"
};
