/* XPM */
static char *result[] = {
/* columns rows colors chars-per-pixel */
"40 40 122 2 ",
"   c black",
".  c #2F3335",
"X  c #2E3437",
"o  c #2C3438",
"O  c #323232",
"+  c #303334",
"@  c #313334",
"#  c #333535",
"$  c #373737",
"%  c #383737",
"&  c #323739",
"*  c #30383B",
"=  c #373B3B",
"-  c #323A3C",
";  c #313A3E",
":  c #343C3E",
">  c #393939",
",  c #38393A",
"<  c gray23",
"1  c #3C3B3B",
"2  c #3A3B3C",
"3  c #3C3D3D",
"4  c #443A34",
"5  c #57473B",
"6  c #574D3F",
"7  c #584F3F",
"8  c #5B503A",
"9  c #72513D",
"0  c #343F43",
"q  c #3A3F40",
"w  c #3C4344",
"e  c #3A494D",
"r  c #3F4A4E",
"t  c #414040",
"y  c #434242",
"u  c #464444",
"i  c #464545",
"p  c #464747",
"a  c #40494B",
"s  c #414C4D",
"d  c #494949",
"f  c #4A4949",
"g  c #4C4A4A",
"h  c #4F4E4D",
"j  c #4F4E4E",
"k  c #404E52",
"l  c #435255",
"z  c #455255",
"x  c #465456",
"c  c #475658",
"v  c #47595C",
"b  c #49585B",
"n  c #4B5D5F",
"m  c #525050",
"M  c #545252",
"N  c #535454",
"B  c #575554",
"V  c #595756",
"C  c #595757",
"Z  c #585758",
"A  c #5B5959",
"S  c #73594B",
"D  c #735B4E",
"F  c #665851",
"G  c #6A5F59",
"H  c #7C7545",
"J  c #4C5E60",
"K  c #4E6468",
"L  c #52686B",
"P  c #53696D",
"I  c #556E71",
"U  c #577174",
"Y  c #567277",
"T  c #587276",
"R  c #5D7A7F",
"E  c #636060",
"W  c #656261",
"Q  c #686464",
"!  c #686564",
"~  c #6A6766",
"^  c #6B696A",
"/  c #6D6968",
"(  c #6D6969",
")  c #6F6B6A",
"_  c #726C69",
"`  c #716E6D",
"'  c #73706F",
"]  c #767271",
"[  c #797473",
"{  c #7B7776",
"}  c #7E7978",
"|  c #8D6247",
" . c #846D42",
".. c #9B6644",
"X. c #9F6E43",
"o. c #9B7745",
"O. c #A57F49",
"+. c #B47E4C",
"@. c #B87B50",
"#. c #807B7A",
"$. c #878943",
"%. c #A9824B",
"&. c #AD8B49",
"*. c #B18248",
"=. c #B6904C",
"-. c #B9984B",
";. c #BE8451",
":. c #C68556",
">. c #CA8E55",
",. c #CE9754",
"<. c #D29F52",
"1. c #D6A851",
"2. c #D4A65B",
"3. c #C48D65",
"4. c #D09F7A",
"5. c #DCB977",
"6. c #628489",
"7. c #64878C",
"8. c #8F8F8D",
"9. c #BCA393",
"0. c #ECEBE7",
"q. c None",
/* pixels */
"q.q.q.q.q.q.q.q.q.q.q.q.q.q.q.q.q.q.q.q.q.q.q.q.q.q.q.q.q.q.q.q.q.q.q.q.q.q.q.q.",
"q.q.q.q.q.q.q.q.q.q.q.q.q.q.q.q.q.q.q.q.q.q.q.q.q.q.q.q.q.q.q.q.q.q.q.q.q.q.q.q.",
"q.q.q.q.q.q.q.q.q.q.q.q.q.q.q.q.q.q.q.q.q.q.q.q.q.q.q.q.q.q.q.q.q.q.q.q.q.q.q.q.",
"q.q.q.q.q.q.q.q.q.q.q.q.q.q.q.q.q.q.q.q.q.q.q.q.q.q.q.q.q.q.q.q.q.q.q.q.q.q.q.q.",
"q.q.q.q.q.q.q.q.q.q.q.q.q.q.q.q.q.      q.      q.q.q.q.q.q.q.q.q.q.q.q.q.q.q.q.",
"q.q.q.q.q.q.q.q.q.q.q.q.q.q.q.q.q.O O O O O O O   q.q.q.q.q.q.q.q.q.q.q.q.q.q.q.",
"q.q.q.q.q.q.q.q.q.q.q.q.q.q.q.q.g C X s b s X C g q.q.q.q.q.q.q.q.q.q.q.q.q.q.q.",
"q.q.q.q.q.q.q.q.q.q.q.q.q.q.q.q.q.q.o I 7.I o q.q.q.q.q.q.q.q.q.q.q.q.q.q.q.q.q.",
"q.q.q.q.q.q.q.q.q.q.q.q.q.q.q.q.q.q.o 7.7.7.o q.q.q.q.q.q.q.q.q.q.q.q.q.q.q.q.q.",
"q.q.q.q.q.q.q.q.q.q.q.q.q.q.q.q.q.q.o 7.7.7.o q.q.q.q.A q.q.q.q.q.q.q.q.q.q.q.q.",
"q.q.q.q.q.q.q.q.q.q.q.q.q.q.Q V i i . I 7.I . i i M Q { u q.q.q.q.q.q.q.q.q.q.q.",
"q.q.q.q.q.q.q.q.q.q.q.q.q.q.6 %.o. . .= R =  . .o.O.6 ) q.q.q.q.q.q.q.q.q.q.q.q.",
"q.q.q.q.q.q.q.q.q.q.q.q.q.q.5 :.9.H 8.O w O 8.H 9.3.5 / q.q.q.q.q.q.q.q.q.q.q.q.",
"q.q.q.q.q.q.q.q.q.q.q.q.q.W 5 :.0.$.O 1.<.1.O $.0.4.5 W q.q.q.q.q.q.q.q.q.q.q.q.",
"q.q.q.q.q.q.q.q.q.q.q.q.q.7 =.<.5.-.&.1.:.1.&.-.5.2.=.7 q.q.q.q.q.q.q.q.q.q.q.q.",
"q.q.q.q.q.q.q.q.q.q.q.q.q.9 +.1.1.*.1.,. .,.1.1.1.1.+.9 4 q.q.q.q.q.q.q.q.q.q.q.",
"q.q.q.q.q.q.q.q.q.q.q.q.E G | @.<.1.X.8 8 8 X.1.<.;.| G E u % O   q.q.q.q.q.q.q.",
"q.q.q.q.q.q.q.q.q.q.q.[ #.} _ F ..X.>.1.1.1.>.X...D _ } #.[ y O   q.q.q.q.q.q.q.",
"q.q.q.q.q.q.q.q.q.q.` #.#.#.#.#.O ( S S S S S ( O / #.#.#.#.` t O   q.q.q.q.q.q.",
"q.q.q.q.q.q.q.q.q.q.p N / / W h C #.] ] ( ] ] #.C m W / / N p 3 O   q.q.q.q.q.q.",
"q.q.q.q.q.q.q.q.q.; k P c q t ( q.q.q.#.C #.q.q.#.` t q c P k ; o   q.q.q.q.q.q.",
"q.q.q.q.q.q.q.q.q.e 7.6.R L y ] q.q.q.#.E #.q.q.q.[ y L R 6.7.e o   q.q.q.q.q.q.",
"q.q.q.q.q.q.q.q.o e 7.6.U s 1 C E E E u u u E E E A 1 s U 6.7.e o   q.q.q.q.q.q.",
"q.q.q.q.q.q.  o * a n n l o . . w n w i V i w n w & . o l n n a * o   q.q.q.q.q.",
"q.q.q.q.q.q.  @ , B / ~ C 2 . X s T I T T T I T s - . 2 C ~ / B , @   q.q.q.q.q.",
"q.q.q.q.q.q.  O 1 E #.{ ! j $ i V V w n n n w V V f $ j ! { #.E 1 O   q.q.q.q.q.",
"q.q.q.q.q.q.q.q.O < B / W d = = = j / ] #.] / j = = = d W / B < O   q.q.q.q.q.q.",
"q.q.q.q.q.q.q.q.q.O O O . : J R R T s 1 u 1 s T R R J : . O O O   q.q.q.q.q.q.q.",
"q.q.q.q.q.q.q.q.q.q.    o e 7.7.7.7.7.I o I 7.7.7.7.7.e o       q.q.q.q.q.q.q.q.",
"q.q.q.q.q.q.q.q.q.q.q.  o 0 K 7.R 7.7.v X v 7.7.R 6.K 0 o   q.q.q.q.q.q.q.q.q.q.",
"q.q.q.q.q.q.q.q.q.q.q.  O + e 7.x I 7.o q.o 7.I x R e + O   q.q.q.q.q.q.q.q.q.q.",
"q.q.q.q.q.q.q.q.q.q.O O O # r Y Y Y 7.o q.o 7.Y Y Y r # O O O O   q.q.q.q.q.q.q.",
"q.q.q.q.q.q.q.q.q.q.O O > C ' ^ ^ Z z @ q.@ z Z ^ ^ ' C > O O O   q.q.q.q.q.q.q.",
"q.q.q.q.q.q.q.q.q.q.O O $ j ` #.#.( i q.q.q.i ( #.#.` j $ O O O   q.q.q.q.q.q.q.",
"q.q.q.q.q.q.q.q.q.q.O O O O O O O O O q.q.q.O O O O O O O O O   q.q.q.q.q.q.q.q.",
"q.q.q.q.q.q.q.q.q.q.q.q.q.q.q.q.q.q.q.q.q.q.q.q.q.q.q.q.q.q.q.q.q.q.q.q.q.q.q.q.",
"q.q.q.q.q.q.q.q.q.q.q.q.q.q.q.q.q.q.q.q.q.q.q.q.q.q.q.q.q.q.q.q.q.q.q.q.q.q.q.q.",
"q.q.q.q.q.q.q.q.q.q.q.q.q.q.q.q.q.q.q.q.q.q.q.q.q.q.q.q.q.q.q.q.q.q.q.q.q.q.q.q.",
"q.q.q.q.q.q.q.q.q.q.q.q.q.q.q.q.q.q.q.q.q.q.q.q.q.q.q.q.q.q.q.q.q.q.q.q.q.q.q.q.",
"q.q.q.q.q.q.q.q.q.q.q.q.q.q.q.q.q.q.q.q.q.q.q.q.q.q.q.q.q.q.q.q.q.q.q.q.q.q.q.q."
};
