/* XPM */
static char *result[] = {
/* columns rows colors chars-per-pixel */
"38 40 256 2 ",
"   c #522825",
".  c #532925",
"X  c #532926",
"o  c #542A26",
"O  c #552A27",
"+  c #552B27",
"@  c #562B27",
"#  c #562C28",
"$  c #572C28",
"%  c #542C2E",
"&  c #582D29",
"*  c #592E29",
"=  c #5A2E2A",
"-  c #5A2F2A",
";  c #5B2F2A",
":  c #5B302A",
">  c #5C302B",
",  c #5C312B",
"<  c #5D322C",
"1  c #5E322C",
"2  c #5F332D",
"3  c #532E30",
"4  c #532F33",
"5  c #532D34",
"6  c #532F3A",
"7  c #533033",
"8  c #543339",
"9  c #54333A",
"0  c #53303F",
"q  c #60342D",
"w  c #60342E",
"e  c #61352E",
"r  c #62352E",
"t  c #62362F",
"y  c #63362F",
"u  c #63372F",
"i  c #6E392D",
"p  c #703B2E",
"a  c #643730",
"s  c #603737",
"d  c #653830",
"f  c #653831",
"g  c #663931",
"h  c #663A31",
"j  c #673A32",
"k  c #663A34",
"l  c #673D34",
"z  c #6B3F36",
"x  c #6B3F37",
"c  c #753F31",
"v  c #7D402F",
"b  c #6C4037",
"n  c #6B4038",
"m  c #6B4239",
"M  c #6D4238",
"N  c #7E4130",
"B  c #7D4231",
"V  c #7F4230",
"C  c #7A4635",
"Z  c #7C4636",
"A  c #7D4937",
"S  c #70473C",
"D  c #744A3E",
"F  c #7B4839",
"G  c #7B493A",
"H  c #7E4F3B",
"J  c #543141",
"K  c #543244",
"L  c #543346",
"P  c #573747",
"I  c #653E42",
"U  c #564154",
"Y  c #564256",
"T  c #65424E",
"R  c #734C40",
"E  c #7A5043",
"W  c #7A5044",
"Q  c #7A5244",
"!  c #654452",
"~  c #654654",
"^  c #644558",
"/  c #63475F",
"(  c #775A51",
")  c #76575D",
"_  c #766058",
"`  c #585172",
"'  c #585474",
"]  c #59557B",
"[  c #634864",
"{  c #624B6B",
"}  c #624B6D",
"|  c #66566F",
" . c #6A526B",
".. c #765866",
"X. c #624E77",
"o. c #624F79",
"O. c #705C78",
"+. c #725F7E",
"@. c #746C67",
"#. c #74617A",
"$. c #727573",
"%. c #717776",
"&. c #707B7B",
"*. c #707E7E",
"=. c #804431",
"-. c #814532",
";. c #834733",
":. c #844833",
">. c #844934",
",. c #854A34",
"<. c #864B35",
"1. c #874C35",
"2. c #874C36",
"3. c #894F37",
"4. c #84543F",
"5. c #895039",
"6. c #8A5038",
"7. c #8B5138",
"8. c #8B5239",
"9. c #8C5239",
"0. c #8D543A",
"q. c #8E553A",
"w. c #8F563B",
"e. c #8F573D",
"r. c #8E573E",
"t. c #91583C",
"y. c #925A3D",
"u. c #875740",
"i. c #815B4C",
"p. c #825C4D",
"a. c #835D4D",
"s. c #996747",
"d. c #836158",
"f. c #81615C",
"g. c #A16E4C",
"h. c #A7794E",
"j. c #A87B4F",
"k. c #A77552",
"l. c #AB8051",
"z. c #B08856",
"x. c #BA8458",
"c. c #B58F5A",
"v. c #C49061",
"b. c #D49C65",
"n. c #D9A066",
"m. c #473D85",
"M. c #493D80",
"N. c #493D81",
"B. c #483E87",
"V. c #433B8B",
"C. c #453D8A",
"Z. c #403A91",
"A. c #413B91",
"S. c #53558E",
"D. c #60548C",
"F. c #675D92",
"G. c #605899",
"H. c #5A608F",
"J. c #5A628E",
"K. c #6D6292",
"L. c #6D7F9D",
"P. c #5C69A0",
"I. c #5D74B5",
"U. c #5E78BD",
"Y. c #6D69A6",
"T. c #6E73A4",
"R. c #6F7AAF",
"E. c #787BA2",
"W. c #6F7EB7",
"Q. c #6B7FBE",
"!. c #4A54C3",
"~. c #4B56C5",
"^. c #4C57C7",
"/. c #4C58C7",
"(. c #4E5BCB",
"). c #4F5BCC",
"_. c #515FCD",
"`. c #525FCD",
"'. c #515FCF",
"]. c #5D66C8",
"[. c #5E7CC0",
"{. c #5C69D2",
"}. c #5F6DD2",
"|. c #5C6BD6",
" X c #636CC8",
".X c #5B6EE0",
"XX c #5B6EE1",
"oX c #6F8385",
"OX c #5D81B9",
"+X c #6A9BA3",
"@X c #7180B8",
"#X c #7F90BA",
"$X c #68A1AB",
"%X c #66ADBB",
"&X c #5E8FC7",
"*X c #5F81CE",
"=X c #6A82C7",
"-X c #7E98CC",
";X c #6087DA",
":X c #609BDD",
">X c #65B2C2",
",X c #65B3C2",
"<X c #64B4C5",
"1X c #64B5C5",
"2X c #5980E8",
"3X c #6893E8",
"4X c #6D9AEC",
"5X c #7399E0",
"6X c #608AF4",
"7X c #6296F6",
"8X c #639BFF",
"9X c #639EFD",
"0X c #61ADEF",
"qX c #60B1E4",
"wX c #60B9E9",
"eX c #61B8EF",
"rX c #61B9EF",
"tX c #61BAEE",
"yX c #61BAEF",
"uX c #60BDEC",
"iX c #60BCED",
"pX c #60BDED",
"aX c #60BEEC",
"sX c #60BFEC",
"dX c #62ABF7",
"fX c #62ADF5",
"gX c #61AFF4",
"hX c #62ACF6",
"jX c #62A2FB",
"kX c #62A6F9",
"lX c #62A4FA",
"zX c #63A0FD",
"xX c #62A8F8",
"cX c #61B1F3",
"vX c #61B3F2",
"bX c #61B4F1",
"nX c #61B7F0",
"mX c #61C4D9",
"MX c #60C9DF",
"NX c #5FCAE5",
"BX c #5FCBE5",
"VX c #5FC9E6",
"CX c #5FC8E7",
"ZX c #5FCAE6",
"AX c #5FCDE4",
"SX c #5FCCE5",
"DX c #60CAE0",
"FX c #60C1EA",
"GX c #60C0EB",
"HX c #60C3EA",
"JX c #60C5E8",
"KX c #60C4E9",
"LX c #60C5E9",
"PX c #60C6E8",
"IX c #8A93AB",
"UX c None",
/* pixels */
"UXUXUXUXUXUXUXUXUXUXUXUXUXUXUXUXUXUXUXUXUXUXUXUXUXUXUXUXUXUXUXUXUXUXUXUXUXUX",
"UXUXUXUXUXUXUXUXUXUXUXUXUXUXUXUXUXUXUXUXUXUXUXUXUXUXUXUXUXUXUXUXUXUXUXUXUXUX",
"UXUXUXUXUXUXUXUXUXUXUXAXUXUXUXUXUXUXUXUXUXUXUXUXUXUXUXUXUXUXUXUXUXUXUXUXUXUX",
"UXUXUXUXUXUXUXUXUXUXAXAXAXAXAXUXUXUXUXUXUXUXUXUXUXUXUXUXUXUXUXUXUXUXUXUXUXUX",
"UXUXUXUXUXUXUXUXUXUXiXnXsXAXAXUXUXUXUXUXUXUXUXUXUXUXUXUXUXUXUXUXUXUXUXUXUXUX",
"UXUXUXUXUXUXUXUXUXAXeXdXnXAXAXAXAXAXUXUXUXUXUXUXUXUXUXUXUXUXUXUXUXUXUXUXUXUX",
"UXUXUXUXUXUXUXUXUXAXAXAXAXAXAXAXAXAXAXAXUXUXUXUXUXUXUXUXUXUXUXUXUXUXUXUXUXUX",
"UXUXUXUXUXUXUXUXAXAXAXAXAXAXAXAXAXAXAXAXAXAXUXUXUXUXUXUXUXUXUXUXUXUXUXUXUXUX",
"UXUXUXUXUXUXUXUXAXAXAXAXAXAXAXAXAXAXAXAXAXAXAXAXUXUXUXUXUXUXUXUXUXUXUXUXUXUX",
"UXUXUXUXUXUXUXAXAXAXAXAXAXAXAXAXAXAXAXAXAXAXAXAXAXAXUXUXUXUXUXUXUXUXUXUXUXUX",
"UXUXUXUXUXUXUXAXgXdXGXAXAXAXZXhXdXHXAXAXHXdXhXZXAXAXeX6XXXUXUXUXUXUXUXUXUXUX",
"UXUXUXUXUXUXAXAXtXnXLXAXAXAXBXeXnXPXAXAXPXnXeXBXAXAXvX2X/.UXUXUXUXUXUXUXUXUX",
"UXUXUXUXUXUXAXAXAXAXAXAXAXAXAXAXAXAXAXAXAXAXAXAXAXsX&XS.B.(.UXUXUXUXUXUXUXUX",
"UXUXUXUXUXAXAXAXAXAXAXAXAXAXAXAXAXAXAXAXAXAXAXAXAXfXH.o 0 C.'.UXUXUXUXUXUXUX",
"UXUXUXUXUXAXAXAXAXAXAXAXAXAXAXAXJXKXVXAXAXAXAXAXPX:X] = t 5 Z.`.UXUXUXUXUXUX",
"UXUXUXUXUXAXAXAXAXAXAXAXAXAXAXAXkX9XrXAXAXAXAXAXkX` . - g a X A._.UXUXUXUXUX",
"UXUXUXAXAXAXAXAXAXAXAXAXAXAXAXAXNXZXSXAXAXAXAXAXkX` > f g g d % V.).XXUXUXUX",
"UXUXUXAXAXAXAXAXAXgXlXeXAXAXAXAXAXAXAXAXAXAXBXxX' 7 , g g g g y 6 m.^.XXUXUX",
"UXUXUXnXdXbXAXAXAXFXuXJXAXAXAXAXAXAXAXAXAXAXBXzXY : y / D.g g g e J N.~.XXUX",
"UXUXAXFXnXpXAXAXAXAXAXAXAXAXAXAXAXrXcXpXAXCX0XJ.9 2 [ F.O.g g , ; , K M.!.UX",
"UXUXUXAXAXAXAXAXAXAXAXAXAXAXAXAXAXrXcXpXAXKX7X8 * t  .+.D g g , ; e e L UXUX",
"UXUXUX$X$X%XAXAXAXAXAXAXAXAXAXAXAXAXAXAXCXqXI.4 r t m S g g g g g g g g UXUX",
"UXUXUXv v _ >X,XDXAXAXAXZXKXKXAXAXAXAXAXaX;X  + t > @ > g g g g u t a g UXUX",
"UXUXUXN N N v B <XmXDXAXiX9XjXBXAXAXAXSXwX*X. a g g f d d g g g & X > g UXUX",
"UXUXUXq.q.3.v v F G +XAXSXZXZXAXAXAXAXrX[.3 . a g g , X & g g g d d f g UXUX",
"UXUXUXw.w.q.9.8.V v W ( oXAXAXAXAXAXAXnXU.O r $ @ w a t u g g g G.{ g g UXUX",
"UXUXUX;.;.<.w.e.R.Q...v E @.$.MXAXAXyXOXU + g w q a g 4.k.Q g G.{.o.g g UXUX",
"UXUXUX2.2.3.w.r.3X8X=XT.#.v Z &.*.1XcXP.+ 2 g g g g u.x.v.a.h ].Y.~ ; ; UXUX",
"UXUXUXw.w.w.w.r.3X8X8X8XW.,.>.v v %.L.| 1 g k X.I g g.n.v.a.h K.) l ; ; UXUX",
"UXUXUXw.w.0.3.5.#X-X4X8X@X7.q.;.;.V v p q s } |.^ g g.n.v.p.w R z g g g UXUX",
"UXUXUXUXw.6.=.-.l.z.IX5XE.:.w.w.w.,.=.i @ P .X X! g g.n.v.i.# @ r g g g UXUX",
"UXUXUXUXUXUXw.w.w.w.h.c.j.w.w.q.q.w.w.A g T }.f.M g g.n.v.a.h g g UXUXUXUXUX",
"UXUXUXUXUXUXUXUXw.w.t.y.t.w.0.V N 6.w.A g n d.x h g g.n.v.a.h UXUXUXUXUXUXUX",
"UXUXUXUXUXUXUXUXUXUXw.w.6.=.-.7.9.q.1.c g j b j * @ s.n.b.UXUXUXUXUXUXUXUXUX",
"UXUXUXUXUXUXUXUXUXUXUXUX8.3.6.w.w.w.9.C r & * d e q H UXUXUXUXUXUXUXUXUXUXUX",
"UXUXUXUXUXUXUXUXUXUXUXUXUXUXUXw.w.w.w.A u < 1 f g UXUXUXUXUXUXUXUXUXUXUXUXUX",
"UXUXUXUXUXUXUXUXUXUXUXUXUXUXUXw.w.w.w.A g g g g UXUXUXUXUXUXUXUXUXUXUXUXUXUX",
"UXUXUXUXUXUXUXUXUXUXUXUXUXUXUXUXUXUXw.A g g UXUXUXUXUXUXUXUXUXUXUXUXUXUXUXUX",
"UXUXUXUXUXUXUXUXUXUXUXUXUXUXUXUXUXUXUXUXUXUXUXUXUXUXUXUXUXUXUXUXUXUXUXUXUXUX",
"UXUXUXUXUXUXUXUXUXUXUXUXUXUXUXUXUXUXUXUXUXUXUXUXUXUXUXUXUXUXUXUXUXUXUXUXUXUX"
};
