/* XPM */
static char *result[] = {
/* columns rows colors chars-per-pixel */
"40 40 234 2 ",
"   c #1E160D",
".  c #181F1E",
"X  c #20160E",
"o  c #281C0F",
"O  c #261D12",
"+  c #2E2012",
"@  c #2E2118",
"#  c #2E221E",
"$  c #372615",
"%  c #34251C",
"&  c #212B2A",
"*  c #242E2D",
"=  c #2B2F2A",
"-  c gray18",
";  c #322521",
":  c #342622",
">  c #3A2A25",
",  c #2C322E",
"<  c #3B382D",
"1  c #263130",
"2  c #273231",
"3  c #273332",
"4  c #2B3432",
"5  c #2F3632",
"6  c #293434",
"7  c #2B3836",
"8  c #2C3A39",
"9  c #2E3A39",
"0  c #2F3C3A",
"q  c #343434",
"w  c gray21",
"e  c #373A32",
"r  c gray23",
"t  c #402B18",
"y  c #402C18",
"u  c #452F1A",
"i  c #46301B",
"p  c #41301E",
"a  c #49321C",
"s  c #4E351D",
"d  c #4E351E",
"f  c #51371F",
"g  c #502E2C",
"h  c #4D3A25",
"j  c #453628",
"k  c #563B21",
"l  c #5C3E23",
"z  c #5C3F23",
"x  c #7D3B36",
"c  c #32403F",
"v  c #424034",
"b  c #4C4A3C",
"n  c #574D3B",
"m  c #524E3F",
"M  c #614225",
"N  c #634325",
"B  c #634326",
"V  c #684728",
"C  c #694728",
"Z  c #6B4928",
"A  c #734F2C",
"S  c #75502C",
"D  c #79522E",
"F  c #7C542F",
"G  c #7D552F",
"H  c #684F33",
"J  c #7A5430",
"K  c #7A5431",
"L  c #7E5630",
"P  c #7F5630",
"I  c #334240",
"U  c #364441",
"Y  c #364644",
"T  c #374645",
"R  c #374745",
"E  c #384846",
"W  c #394947",
"Q  c #384A48",
"!  c #3B4B4A",
"~  c #3D4F4D",
"^  c #3D504E",
"/  c #3E504E",
"(  c #3F504E",
")  c #3F504F",
"_  c gray25",
"`  c #434343",
"'  c #404741",
"]  c #4C4443",
"[  c #474D45",
"{  c #4E4E4E",
"}  c #405250",
"|  c #405452",
" . c #425553",
".. c #425654",
"X. c #425755",
"o. c #455856",
"O. c #445957",
"+. c #455A58",
"@. c #475B59",
"#. c #485C5A",
"$. c #485D5A",
"%. c #485D5B",
"&. c #495E5C",
"*. c #4A5F5D",
"=. c #565656",
"-. c gray34",
";. c #585858",
":. c gray35",
">. c #5A5A5A",
",. c #5F5F5F",
"<. c #675655",
"1. c #4A605D",
"2. c #4A615E",
"3. c #4B615E",
"4. c #4C6260",
"5. c #4D6361",
"6. c #4D6461",
"7. c #4F6563",
"8. c #506865",
"9. c #526A67",
"0. c #536B68",
"q. c #546B69",
"w. c #546C6A",
"e. c #556C6A",
"r. c #566F6C",
"t. c #576F6D",
"y. c #57706D",
"u. c #58706E",
"i. c #58716E",
"p. c #58726F",
"a. c #597270",
"s. c #597370",
"d. c #5A7371",
"f. c #5A7472",
"g. c #5B7472",
"h. c #5B7572",
"j. c #5B7573",
"k. c #5C7673",
"l. c #5C7774",
"z. c #5D7774",
"x. c #5D7775",
"c. c #5D7875",
"v. c #5E7875",
"b. c #5E7976",
"n. c #5F7A77",
"m. c #717171",
"M. c gray48",
"N. c #835932",
"B. c #845A32",
"V. c #855B33",
"C. c #865B32",
"Z. c #895D34",
"A. c #8A5E35",
"S. c #8B5F35",
"D. c #855E38",
"F. c #8E6136",
"G. c #896038",
"H. c #906236",
"J. c #916337",
"K. c #946538",
"L. c #966639",
"P. c #976739",
"I. c #99683A",
"U. c #9B693B",
"Y. c #9C6A3B",
"T. c #9D6B3B",
"R. c #9F6C3D",
"E. c #A06D3C",
"W. c #A16E3E",
"Q. c #A36F3E",
"!. c #A4703E",
"~. c #A5703E",
"^. c #A6713E",
"/. c #A6713F",
"(. c #A77140",
"). c #A87240",
"_. c #AA7340",
"`. c #AA7341",
"'. c #AF7742",
"]. c #B07843",
"[. c #B27843",
"{. c #B27943",
"}. c #B27944",
"|. c #B77D45",
" X c #B87D46",
".X c #BB7F46",
"XX c #BB7F47",
"oX c #BE8148",
"OX c #BF8248",
"+X c #BF8249",
"@X c #C18349",
"#X c #C1834A",
"$X c #C28449",
"%X c #C3854A",
"&X c #C4854A",
"*X c #C5864A",
"=X c #C6864B",
"-X c #CA894D",
";X c #D08D4E",
":X c #D28E4F",
">X c #D79252",
",X c #D89251",
"<X c #D89351",
"1X c #DC9553",
"2X c #DF9854",
"3X c #E29A55",
"4X c #E59B56",
"5X c #E79D57",
"6X c #EA9E58",
"7X c #EB9F58",
"8X c #EBA059",
"9X c #EDA159",
"0X c #EFA25A",
"qX c #F2A45B",
"wX c #F6A75D",
"eX c #F7A75D",
"rX c #F7A85D",
"tX c #F8A85D",
"yX c #F8A95E",
"uX c #F9A95E",
"iX c #FBAA5E",
"pX c #FDAC5F",
"aX c #FFAD60",
"sX c #838383",
"dX c #848484",
"fX c gray53",
"gX c #888888",
"hX c #898989",
"jX c gray54",
"kX c #939393",
"lX c gray60",
"zX c gray61",
"xX c #9D9D9D",
"cX c None",
/* pixels */
"cXcXcXcXcXcXcXcXcXcXcXcXcXcXcXcXcXcXcXcXcXcXcXcXcXcXcXcXcXcXcXcXcXcXcXcXcXcXcXcX",
"cXcXcXcXcXcXcXcXcXcXcXcXcXcXcXcXcXcXcXcXcXcXcXcXcXcXcXcXcXcXcXcXcXcXcXcXcXcXcXcX",
"cXcXcXcXcXcXcXcXcXcXcXcXcXcXcXcXcXcXcXcXcXcXcXcXcXcXcXcXcXcXcXcXcXcXcXcXcXcXcXcX",
"cXcXcXcXcXcXcXcXcXcXcXcXcXcXcXcXcXcXcXcXcXcXcXcXcXcXcXcXcXcXcXcXcXcXcXcXcXcXcXcX",
"cXcXcXcXcXcXcXcXcXcXcXcXcXcXcXcXcXcXcXcXcXcXcXcXcXcXcXcXcXcXcXcXcXcXcXcXcXcXcXcX",
"cXcXcXcXcXcXcXcXcXcXcXcXcXcXcXcXcXcXcXcXcXcXcX= } 5.5.5.4.) W cXcXcXcXcXcXcXcXcX",
"cXcXcXcXcXcXcXcXcXcXcXcXcXcXcXcXcXcXcXcXcXP U.b n.n.n.n.n.n.c.%.3 cXcXcXcXcXcXcX",
"cXcXcXcXcXcXcXcXcXcXcXcXcXcXcXcXcXcXcXI.5X1X Xm n.n.n.n.n.n.b.c.n.$.9 cXcXcXcXcX",
"cXcXcXcXcXcXcXcXcXcXcXcXcXcXcXcXcXo [.aXaX6XoXA n.n.k.b.y.n.n.n.n.n.p.E cXcXcXcX",
"cXcXcXcXcXcXcXcXcXcXcXcXcXcXcXcXcXP.uXaXaXqX#XF g.n.n.n.n.n.n.n.n.n.n.a.2 cXcXcX",
"cXcXcXcXcXcXcXcXcXcXcXcXcXcXcXcXcX<XaXaXaX8XQ.Z.R 5.r.n.n.n.n.n.n.n.n.n.#.cXcXcX",
"cXcXcXcXcXcXcXcXcXcXcXcXcXcXcXcXG pX$XV.B M cXcXcXcX .n.v.v.n.n.n.n.n.n.t.cXcXcX",
"cXcXcXcXcXcXcXcXcXcXcXcXcXcXcXcX^.aX1X).d cXcXcXcXcX6 y.b.b.n.n.n.h.n.n.b.W cXcX",
"cXcXcXcXcXcXcXcXcXcXcXcXcXcXcXcX9XpX,XC cXcXcXcXcXcXcX( z.n.n.n.n.n.n.n.n.o.cXcX",
"cXcXcXcXcXcXcXcXcXcXcXcXcXcXcXcXaXtX&Xt cXcXcXcXcXcXcXcX0.n.n.n.n.n.n.n.n.r.7 cX",
"cXcXcXcXcXcXcXcXcXcXcXcXcXcXcXcXaXeXS.cXcXcXcXcXcXcXcXcX& p.n.n.n.n.n.n.n.n.Y cX",
"cXcXcXcXcXcXcXcXcXcXcXcXcXcXcXcX XW.u cXcXcXcXG E.E.P.z O I 5.f.n.n.n.n.z.z.q.cX",
"cXcXcXcXcX_ :.{ q - w -.>.;.>.=.% @ cXcXcXcX|.rXaXaXyX%X/.p 8 ..v.n.n.n.n.n.q.cX",
"cXcXcXcXcXm.zXfX` x <.kXxXlXxXzX> : cXcXcXY.uXaXaXaXaX>X XD , | 8.n.n.n.n.n.q.cX",
"cXcXcXcXcX,.sXM.r g ] dXsXjXhXgX; # cXcXi :XaXaXaXaXaX8XXXL.e | +.v.n.n.n.n.q.cX",
"cXcXcXcXcXcXcXcXcXcXcXcXcXcXcXj K X cXcXl 1XaXaXaXaXaXwX@XL.e | | k.n.n.n.n.q.cX",
"cXcXcXcXcXcXcXcXcXcXcXcXcXcXcXV  X+ cXcXN.1XaXaXaXaXaXwX@XL.e | O.c.n.n.n.n.q.cX",
"cXcXcXcXcXcXcXcXcXcXcXcXcXcXcX*X1X$ cXcXL 1XaXaXaXaXaXwX@XJ 5 | 1.n.n.n.n.n.q.cX",
"cXcXcXcXcXcXcXcXcXcXcXcXcXcXJ.aXaXy cXcXa 1XaXaXaXaXaXwX@XH Q | w.n.n.n.h.n.q.cX",
"cXcXcXcXcXcXcXcXcXcXcXcXcXS 5XaXaXG cXcXcX@XaXaXaXaXaX8X].< ^ 2.n.n.n.n.n.n.q.cX",
"cXcXcXcXcXcXcXcXcXcXcXcXcXT.aXaXaX.XcXcXcXZ OXaXaXaXwX=XG.U X.j.n.n.n.n.n.n.q.cX",
"cXcXcXcXcXcXcXcXcXcXcXcXcXT.aXaXaX0XC.cXcXcXcX&X9XpX1XR.h ~ 6.n.n.n.n.n.n.n.q.cX",
"cXcXcXcXcXcXcXcXcXcXcXcXcX{.aXaXaXaXT.cXcXcXcXcXcXN f   4 d.b.n.n.n.n.n.n.n.&.cX",
"cXcXcXcXcXcXcXcXcXcXcXcXcX~.aXaXaXaX'.cXcXcXcXcXcXcXcX/ i.n.n.n.n.b.n.n.n.n.Y cX",
"cXcXcXcXcXcXcXcXcXcXcXcXcXB.;XaXaXaXwX_.cXcXcXcXcXcXI h.v.n.n.n.n.k.c.n.n.n.Y cX",
"cXcXcXcXcXcXcXcXcXcXcXcXcXcXs 2XaXaXaX7XH.cXcXcXcX1 9.v.l.n.n.n.n.n.n.n.n.n.Y cX",
"cXcXcXcXcXcXcXcXcXcXcXcXcXcXcXG aXaXaXaXwX`.A.k 5.n.n.n.n.n.n.n.n.n.n.n.n.n.Y cX",
"cXcXcXcXcXcXcXcXcXcXcXcXcXcXcXcXG rXaXaX5X X}.v n.n.n.n.n.n.n.n.n.n.n.n.n.&.cXcX",
"cXcXcXcXcXcXcXcXcXcXcXcXcXcXcXcXcXC.3XiX-X XD.0.n.n.n.n.n.n.v.n.n.n.n.n.k.c cXcX",
"cXcXcXcXcXcXcXcXcXcXcXcXcXcXcXcXcXcXK.4X+X(.n n.n.n.n.n.n.n.k.n.n.n.n.n.7.cXcXcX",
"cXcXcXcXcXcXcXcXcXcXcXcXcXcXcXcXcXcXcXF.!.L.[ n.n.n.k.b.n.n.n.n.n.h.x.e.0 cXcXcX",
"cXcXcXcXcXcXcXcXcXcXcXcXcXcXcXcXcXcXcXcXcXz ' s.n.n.n.n.n.n.n.n.v.u.*.cXcXcXcXcX",
"cXcXcXcXcXcXcXcXcXcXcXcXcXcXcXcXcXcXcXcXcXcXcX* ! 3.5.5.5.5.5.@.T cXcXcXcXcXcXcX",
"cXcXcXcXcXcXcXcXcXcXcXcXcXcXcXcXcXcXcXcXcXcXcXcXcXcX. . . . . cXcXcXcXcXcXcXcXcX",
"cXcXcXcXcXcXcXcXcXcXcXcXcXcXcXcXcXcXcXcXcXcXcXcXcXcXcXcXcXcXcXcXcXcXcXcXcXcXcXcX"
};
