/* XPM */
static char *result[] = {
/* columns rows colors chars-per-pixel */
"40 40 168 2 ",
"   c black",
".  c #010101",
"X  c #000002",
"o  c #010103",
"O  c #020102",
"+  c #020305",
"@  c #010307",
"#  c #020308",
"$  c #03050B",
"%  c #05010C",
"&  c #06020D",
"*  c #03060E",
"=  c #090609",
"-  c #0A0B0A",
";  c #09090E",
":  c #0C080E",
">  c #040710",
",  c #050914",
"<  c #0E0A10",
"1  c #0B0C11",
"2  c #0F0F14",
"3  c #0D0D16",
"4  c #0E0D16",
"5  c #0E0E17",
"6  c #0F0F17",
"7  c #0D061F",
"8  c #080818",
"9  c #090819",
"0  c #0F0F19",
"q  c #100B11",
"w  c #100F19",
"e  c #0E111B",
"r  c #0F111B",
"t  c #111111",
"y  c #151314",
"u  c #191015",
"i  c #181A17",
"p  c #171019",
"a  c #17171D",
"s  c #1A121C",
"d  c #1B131D",
"f  c #18181D",
"g  c #181A1F",
"h  c #241D19",
"j  c #0F0420",
"k  c #100522",
"l  c #110524",
"z  c #161623",
"x  c #161624",
"c  c #1A1B21",
"v  c #181826",
"b  c #181827",
"n  c #1D1F26",
"m  c #1D1929",
"M  c #1B1E28",
"N  c #1C1F28",
"B  c #1D1D2E",
"V  c #1D1D2F",
"C  c #270427",
"Z  c #201722",
"A  c #221A24",
"S  c #2D1F27",
"D  c #251D2C",
"F  c #291D2B",
"G  c #2E1F29",
"H  c #330532",
"J  c #3B063A",
"K  c #1E222B",
"L  c #1E212C",
"P  c #1B3A24",
"I  c #232324",
"U  c #2A2522",
"Y  c #2A2B25",
"T  c #2F2924",
"R  c #272628",
"E  c #23232C",
"W  c #26272E",
"Q  c #28272D",
"!  c #33222C",
"~  c #362E28",
"^  c #313028",
"/  c #36312D",
"(  c #212136",
")  c #222236",
"_  c #242635",
"`  c #2A2630",
"'  c #2A2234",
"]  c #282A32",
"[  c #282A33",
"{  c #2D2A33",
"}  c #2F2E33",
"|  c #2A2834",
" . c #292B34",
".. c #2B2A35",
"X. c #2A2D35",
"o. c #2A2D36",
"O. c #2B2E37",
"+. c #2B2F37",
"@. c #2C2F37",
"#. c #262338",
"$. c #26263E",
"%. c #2B2D38",
"&. c #2B2D39",
"*. c #2B2E38",
"=. c #2C2F38",
"-. c #2C2E39",
";. c #2D2D3A",
":. c #332732",
">. c #3A2632",
",. c #382934",
"<. c #3A3635",
"1. c #3B353C",
"2. c #411939",
"3. c #492F3B",
"4. c #463430",
"5. c #4F3732",
"6. c #403C32",
"7. c #433C34",
"8. c #4A3D34",
"9. c #4A3E35",
"0. c #48343A",
"q. c #49303C",
"w. c #48383C",
"e. c #5F3633",
"r. c #533E39",
"t. c #2A4733",
"y. c #584326",
"u. c #504C3A",
"i. c #78503E",
"p. c #2B2B45",
"a. c #5B2F4B",
"s. c #5C2F4A",
"d. c #543C43",
"f. c #453D55",
"g. c #434441",
"h. c #4E4D50",
"j. c #575552",
"k. c #644F47",
"l. c #684D47",
"z. c #644B48",
"x. c #7E4951",
"c. c #77445A",
"v. c #645658",
"b. c #736051",
"n. c #5F586D",
"m. c #7C7863",
"M. c #727071",
"N. c #805C26",
"B. c #BB6833",
"V. c #BE7432",
"C. c #80494F",
"Z. c #9B8169",
"A. c #9A806C",
"S. c #B49278",
"D. c #FFB84A",
"F. c #F4BD78",
"G. c #DAA697",
"H. c #DEB19B",
"J. c #DFB999",
"K. c #E8B895",
"L. c #E9B895",
"P. c #E6C09C",
"I. c #EEC299",
"U. c #ECC09B",
"Y. c #EBC09D",
"T. c #ECC09E",
"R. c #E7C0A0",
"E. c None",
/* pixels */
"E.E.E.E.E.E.E.E.E.E.E.E.E.E.E.E.E.E.E.E.E.E.E.E.E.E.E.E.E.E.E.E.E.E.E.E.E.E.E.E.",
"E.E.E.E.E.E.E.E.E.E.E.E.E.E.E.E.E.E.E.E.E.E.E.E.E.E.E.E.E.E.E.E.E.E.E.E.E.E.E.E.",
"E.E.E.E.E.E.E.E.E.E.E.E.E.E.E.E.E.E.E.E.E.E.E.E.E.E.E.E.E.E.E.E.E.E.E.E.E.E.E.E.",
"E.E.E.E.E.E.E.E.E.E.E.E.E.E.E.E.E.E.E.E.E.E.E.E.E.E.E.E.E.E.E.E.E.E.E.E.E.E.E.E.",
"E.E.E.E.E.E.E.E.E.E.E.E.E.E.E.E.E.E.E.E.E.E.E.E.E.E.E.E.E.E.E.E.E.E.E.E.E.E.E.E.",
"E.E.E.E.E.E.E.E.E.E.E.E.E.E.E.E.E.E.E.E.E.E.E.E.E.E.E.E.E.E.E.E.E.E.E.E.E.E.E.E.",
"E.E.E.E.E.E.E.E.E.E.E.E.E.E.E.E.E.E.E.E.E.E.E.E.E.E.E.E.E.E.E.E.E.E.E.E.E.E.E.E.",
"E.E.E.E.E.E.E.E.E.E.E.E.E.E.E.E.E.E.E.E.E.E.E.E.E.E.E.E.E.E.E.E.E.E.E.E.E.E.E.E.",
"E.E.E.E.E.E.E.E.E.E.E.E.E.E.E.E.E.E.E.E.X @ * * * $ X E.E.E.E.E.E.E.E.E.E.E.E.E.",
"E.E.E.E.E.E.E.E.E.E.E.E.E.E.E.E.E.E.% j l k 7 8 , , , > X E.E.E.E.E.E.E.E.E.E.E.",
"E.E.E.E.E.E.E.E.E.E.E.E.E.E.E.E.E.E.& f.n.n.f.l 9 , , , X E.E.E.E.E.E.E.E.E.E.E.",
"E.E.E.E.E.E.E.E.E.E.E.E.E.E.E.E.E.E.& l l l l l 9 , , , X E.E.E.E.E.E.E.E.E.E.E.",
"E.E.E.E.E.E.E.E.E.E.E.E.E.E.E.E.E.J H C s.a.2.c.e.y.y.B.X E.E.E.E.E.E.E.E.E.E.E.",
"E.E.E.E.E.E.E.E.E.E.E.E.E.E.E.E.E.E.E.A.R.T.U.Y.F.D.D.V.X E.E.E.E.E.E.E.E.E.E.E.",
"E.E.E.E.E.E.E.E.E.E.E.E.E.E.E.E.E.E.E.b.Z.S.L.I.K.i.N.E.E.E.E.E.E.E.E.E.E.E.E.E.",
"E.E.E.E.E.E.E.E.E.E.E.E.E.E.E.E.E.E.E.E.E.X 9.J.8.= u q < E.E.E.E.E.E.E.E.E.E.E.",
"E.E.E.E.E.E.E.E.E.E.E.E.E.E.E.E.E.E.E.E.2 c } v.0.! ,.A F s E.E.E.E.E.E.E.E.E.E.",
"E.E.E.E.E.E.E.E.E.E.E.E.6.I E.E.r.l.E.o a 1.d.q.>.{ X.g d F < E.E.E.E.E.E.E.E.E.",
"E.E.E.E.E.E.E.E.E.E.E.u.m.g.P ~ k.4.t.t f x.C.:.E M @.+.X F < E.E.E.E.E.E.E.E.E.",
"E.E.E.E.E.E.E.E.E.E.E.^ Y i 5.G.G.G.z.- f 3.` o.O.M N =.X F < E.E.E.E.E.E.E.E.E.",
"E.E.E.E.E.E.E.E.E.E.E.E.E.E.E.E.E.E.E.+ S  .O.%.*.K e ] n p < E.E.E.E.E.E.E.E.E.",
"E.E.E.E.E.E.E.E.E.E.E.E.E.E.E.E.E.E.E.# G %.%.&.;.K r [ -.< Z : E.E.E.E.E.E.E.E.",
"E.E.E.E.E.E.E.E.E.E.E.E.E.E.E.E.E.E.E.E.# | ..*.@.L r W Q < F < E.E.E.E.E.E.E.E.",
"E.E.E.E.E.E.E.E.E.E.E.E.E.E.E.E.E.E.E.E.E.0 #.D ' m w.H.P.X X E.E.E.E.E.E.E.E.E.",
"E.E.E.E.E.E.E.E.E.E.E.E.E.E.E.E.E.E.E.E.E.0 ( b $.V o X X E.E.E.E.E.E.E.E.E.E.E.",
"E.E.E.E.E.E.E.E.E.E.E.E.E.E.E.E.E.E.E.E.E.b V X x p.V E.E.E.E.E.E.E.E.E.E.E.E.E.",
"E.E.E.E.E.E.E.E.E.E.E.E.E.E.E.E.E.E.E.E.X p.V E.E.) ) ; E.E.E.E.E.E.E.E.E.E.E.E.",
"E.E.E.E.E.E.E.E.E.E.E.E.E.E.E.E.E.E.E.E.z ) 3 E.E.6 p.5 E.E.E.E.E.E.E.E.E.E.E.E.",
"E.E.E.E.E.E.E.E.E.E.E.E.E.E.E.E.E.E.E.  B V o E.E.; v ( . E.E.E.E.E.E.E.E.E.E.E.",
"E.E.E.E.E.E.E.E.E.E.E.E.E.E.E.E.E.E.E.B p.o E.E.E.E.5 p.  E.E.E.E.E.E.E.E.E.E.E.",
"E.E.E.E.E.E.E.E.E.E.E.E.E.E.E.E.E.E.E.B p.o E.E.E.E.E.B p.o E.E.E.E.E.E.E.E.E.E.",
"E.E.E.E.E.E.E.E.E.E.E.E.E.E.E.E.E.E.w _ 1 E.E.E.E.E.E.4 p.h E.E.E.E.E.E.E.E.E.E.",
"E.E.E.E.E.E.E.E.E.E.E.E.E.E.E.E.O j.T / y E.E.E.E.E.E.U 7.<.E.E.E.E.E.E.E.E.E.E.",
"E.E.E.E.E.E.E.E.E.E.E.E.E.E.E.E.E.E.M.R E.E.E.E.E.E.E.h.M.E.E.E.E.E.E.E.E.E.E.E.",
"E.E.E.E.E.E.E.E.E.E.E.E.E.E.E.E.E.E.E.E.E.E.E.E.E.E.E.E.E.E.E.E.E.E.E.E.E.E.E.E.",
"E.E.E.E.E.E.E.E.E.E.E.E.E.E.E.E.E.E.E.E.E.E.E.E.E.E.E.E.E.E.E.E.E.E.E.E.E.E.E.E.",
"E.E.E.E.E.E.E.E.E.E.E.E.E.E.E.E.E.E.E.E.E.E.E.E.E.E.E.E.E.E.E.E.E.E.E.E.E.E.E.E.",
"E.E.E.E.E.E.E.E.E.E.E.E.E.E.E.E.E.E.E.E.E.E.E.E.E.E.E.E.E.E.E.E.E.E.E.E.E.E.E.E.",
"E.E.E.E.E.E.E.E.E.E.E.E.E.E.E.E.E.E.E.E.E.E.E.E.E.E.E.E.E.E.E.E.E.E.E.E.E.E.E.E.",
"E.E.E.E.E.E.E.E.E.E.E.E.E.E.E.E.E.E.E.E.E.E.E.E.E.E.E.E.E.E.E.E.E.E.E.E.E.E.E.E."
};
