/* XPM */
static char *result[] = {
/* columns rows colors chars-per-pixel */
"40 40 104 2 ",
"   c #5F0707",
".  c #6A0F0F",
"X  c #741616",
"o  c #771A1A",
"O  c #761B1B",
"+  c #6C201D",
"@  c #4C3128",
"#  c #6E2E2A",
"$  c #7B2121",
"%  c #7E2222",
"&  c #7F2727",
"*  c #79302C",
"=  c #683B34",
"-  c #753C35",
";  c #7A3834",
":  c #7C3B37",
">  c #61463B",
",  c #75473F",
"<  c #714740",
"1  c #714940",
"2  c #6C5045",
"3  c #775A4D",
"4  c #765A4E",
"5  c #7F6252",
"6  c #832222",
"7  c #822C2A",
"8  c #8B2828",
"9  c #8F2B2B",
"0  c #933232",
"q  c #953030",
"w  c #953131",
"e  c #943333",
"r  c #983333",
"t  c #983434",
"y  c #993535",
"u  c #9B3535",
"i  c #9A3636",
"p  c #9A3737",
"a  c #993939",
"s  c #9E3838",
"d  c #A23E3E",
"f  c #A53F3F",
"g  c #A73F3F",
"h  c #83542F",
"j  c #844440",
"k  c #864E45",
"l  c #82554C",
"z  c #8C5752",
"x  c #A54141",
"c  c #A94545",
"v  c #AB4747",
"b  c #AC4545",
"n  c #AC4646",
"m  c #B14B4B",
"M  c #B04C4C",
"N  c #B34F4F",
"B  c #B44E4E",
"V  c #AC594D",
"C  c #B65252",
"Z  c #B85454",
"A  c #BB5757",
"S  c #BD5A5A",
"D  c #957F4D",
"F  c #816659",
"G  c #876A5C",
"H  c #8D6F5E",
"J  c #92605B",
"K  c #8A6F61",
"L  c #8C7163",
"P  c #947665",
"I  c #997A66",
"U  c #C05D5D",
"Y  c #C26060",
"T  c #C46363",
"R  c #C66565",
"E  c #C96969",
"W  c #CA6C6C",
"Q  c #CB6C6C",
"!  c #CD6F6F",
"~  c #CB7070",
"^  c #CF7272",
"/  c #D27575",
"(  c #D67B7B",
")  c #D87E7E",
"_  c #32B018",
"`  c #4BD532",
"'  c #A28875",
"]  c #AC8E7A",
"[  c #BD8F7E",
"{  c #A9907E",
"}  c #B1A56F",
"|  c #BDA38E",
" . c #DB8181",
".. c #DD8585",
"X. c #DF8787",
"o. c #E48E8E",
"O. c #E59090",
"+. c #E89595",
"@. c #EA9898",
"#. c #EB9999",
"$. c #C6AE98",
"%. c #F1A2A2",
"&. c #F7ABAB",
"*. c None",
/* pixels */
"*.*.*.*.*.*.*.*.*.*.*.*.*.*.*.*.*.*.*.*.*.*.*.*.*.*.*.*.*.*.*.*.*.*.*.*.*.*.*.*.",
"*.*.*.*.*.*.*.*.*.*.*.*.*.*.*.*.*.*.*.*.*.*.*.*.*.*.*.*.*.*.*.*.*.*.*.*.*.*.*.*.",
"*.*.*.*.*.*.*.*.*.*.*.*.*.*.*.*.*.*.*.*.*.*.*.*.*.*.*.*.*.*.*.*.*.*.*.*.*.*.*.*.",
"*.*.*.*.*.*.*.*.*.*.*.*.*.*.*.*.*.*.*.*.*.*.*.*.*.*.*.*.*.*.*.*.*.*.*.*.*.*.*.*.",
"*.*.*.*.*.*.*.*.*.*.*.*.*.*.*.*.*.*.*.*.*.*.*.*.*.*.*.*.*.*.*.*.*.*.*.*.*.*.*.*.",
"*.*.*.*.*.*.*.*.*.*.*.*.*.*.*.*.*.*.*.*.*.*.*.*.*.*.*.*.*.*.*.*.*.*.*.*.*.*.*.*.",
"*.*.*.*.*.*.*.*.*.*.*.*.*.*.*.*.*.*.*.*.*.*.*.*.*.*.*.*.*.*.*.*.*.*.*.*.*.*.*.*.",
"*.*.*.*.*.*.*.*.*.L 4 L G K F 1 *.*.*.*.*.*.*.*.1 F K G L 4 L *.*.*.*.*.*.*.*.*.",
"*.*.*.*.*.*.*.*.@ $.2 $.] | { -   *.*.*.*.*.*.  - { | ] $.2 $.@ *.*.*.*.*.*.*.*.",
"*.*.*.*.*.*.*.*.@ [ = I 3 H ' k   *.*.*.*.*.*.  k ' H 3 I = [ @ *.*.*.*.*.*.*.*.",
"*.*.*.*.*.*.*.7 # ! ! j : ; ; +   *.*.*.*.*.*.  + ; ; : j ! ! # 7 *.*.*.*.*.*.*.",
"*.*.*.*.*.*.*.9 9 x ! A B m p o *.*.*.*.*.*.*.*.o p m B A ! x 9 9 *.*.*.*.*.*.*.",
"*.*.*.*.*.*.*.9 9 x A A A a % *.*.*.*.*.*.*.*.*.*.% a A A A x 9 9 *.*.*.*.*.*.*.",
"*.*.*.*.*.*.*.w x ! ! ! U O   *.*.*.*.*.*.*.*.*.*.  O U ! ! ! x w *.*.*.*.*.*.*.",
"*.*.*.*.*.*.*.i A X.X.X./ $   *.*.*.*.*.*.*.*.*.*.  $ / X.X.X.A i *.*.*.*.*.*.*.",
"*.*.*.*.*.*.t v A X.#.X.X.&   *.*.*.*.*.*.*.*.*.*.  & X.X.#.X.A v t *.*.*.*.*.*.",
"*.*.*.*.*.9 i A A X.&.X.X.&   *.*.*.*.*.*.*.*.*.*.  & X.X.&.X.A A i 9 *.*.*.*.*.",
"*.*.*.*.*.9 i Y ( %.&.X.X.&   *.*.            *.*.  & X.X.&.%.( Y i 9 *.*.*.*.*.",
"*.*.*.*.*.d N T X.&.O.X.Q 0 X   . 6 6 6 6 6 6 .   X 0 Q X.O.&.X.T N d *.*.*.*.*.",
"*.*.*.*.9 x A T X.O.X.T S i p e 8 f M ~ ~ M f 8 e p i S T X.O.X.T A x 9 *.*.*.*.",
"*.*.*.*.9 x Y ) X.X.X.( Y i w s h _ ` %.%.` _ h s w i Y ( X.X.X.) Y x 9 *.*.*.*.",
"*.*.*.*.9 x T X.X.%.X.X.T i r n V D } O.O.} D V n r i T X.X.%.X.X.T x 9 *.*.*.*.",
"*.*.*.*.9 x T X.X.&.X.X.T i u m Y ..%.%.%.X.) Y m u i T X.X.&.X.X.T x 9 *.*.*.*.",
"*.*.*.*.9 x T o.%.&.%.X.T i * , l J &.&.&.X.z l , * i T X.%.&.%.o.T x 9 *.*.*.*.",
"*.*.*.*.9 x T X.X.&.&.X.T = 5 P 4 2 @ &.&.@ 2 4 P 5 = T X.&.&.X.X.T x 9 *.*.*.*.",
"*.*.*.*.9 x T X.X.X.&.X.T i # > 2 < X.X.&.X.< 2 > # i T X.&.X.X.X.T x 9 *.*.*.*.",
"*.*.*.*.9 x A T X.X.X.X.T i u m A T X.X.X.X.T A m u i T X.X.X.X.T A x 9 *.*.*.*.",
"*.*.*.*.9 x A A A X.X.X.T A x u b A A X.A A A b u x A T X.X.X.A A A x 9 *.*.*.*.",
"*.*.*.*.*.9 i A A A X.X.X.T A x q g g A A g g q x A T X.X.X.A A A i 9 *.*.*.*.*.",
"*.*.*.*.*.9 i A A X.X.&.&.O.! A M 9 9 9 9 9 9 M A ! O.&.&.X.X.A A i 9 *.*.*.*.*.",
"*.*.*.*.*.*.*.y M A ( ( @.%.+./ T R W W W W R T / +.%.@.( ( A M y *.*.*.*.*.*.*.",
"*.*.*.*.*.*.*.*.9 M A A ^ ( (  .X.o.%.&.&.%.o.X. .( ( ^ A A M 9 *.*.*.*.*.*.*.*.",
"*.*.*.*.*.*.*.*.*.9 M M Z A A E ) X.X.%.%.X.X.) E A A Z M M 9 *.*.*.*.*.*.*.*.*.",
"*.*.*.*.*.*.*.*.*.*.9 9 c M C A Y ( ( ( ( ( ( Y A C M c 9 9 *.*.*.*.*.*.*.*.*.*.",
"*.*.*.*.*.*.*.*.*.*.*.*.9 9 d M M M M M M M M M M d 9 9 *.*.*.*.*.*.*.*.*.*.*.*.",
"*.*.*.*.*.*.*.*.*.*.*.*.*.*.*.9 9 9 9 9 9 9 9 9 9 *.*.*.*.*.*.*.*.*.*.*.*.*.*.*.",
"*.*.*.*.*.*.*.*.*.*.*.*.*.*.*.*.*.*.*.*.*.*.*.*.*.*.*.*.*.*.*.*.*.*.*.*.*.*.*.*.",
"*.*.*.*.*.*.*.*.*.*.*.*.*.*.*.*.*.*.*.*.*.*.*.*.*.*.*.*.*.*.*.*.*.*.*.*.*.*.*.*.",
"*.*.*.*.*.*.*.*.*.*.*.*.*.*.*.*.*.*.*.*.*.*.*.*.*.*.*.*.*.*.*.*.*.*.*.*.*.*.*.*.",
"*.*.*.*.*.*.*.*.*.*.*.*.*.*.*.*.*.*.*.*.*.*.*.*.*.*.*.*.*.*.*.*.*.*.*.*.*.*.*.*."
};
