/* XPM */
static char *result[] = {
/* columns rows colors chars-per-pixel */
"40 40 33 1 ",
"  c black",
". c gray3",
"X c #181818",
"o c #202020",
"O c #2A3537",
"+ c #2B3438",
"@ c #2A3538",
"# c #2B3538",
"$ c #2A3539",
"% c #2C3438",
"& c #313131",
"* c #323232",
"= c gray20",
"- c #4F352F",
"; c #465456",
": c #475456",
"> c #575656",
", c #585656",
"< c #595656",
"1 c #585757",
"2 c #595757",
"3 c #606060",
"4 c gray43",
"5 c #8C5B3E",
"6 c #8C5C3D",
"7 c #8C5C3E",
"8 c #807B79",
"9 c #807A7A",
"0 c #807B7A",
"q c #C68556",
"w c #63878C",
"e c #64878C",
"r c None",
/* pixels */
"rrrrrrrrrrrrrrrrrrrrrrrrrrrrrrrrrrrrrrrr",
"rrrrrrrrrrrrrrr*<@rr:$>=rrrrrrrrrrrrrrrr",
"rrrrrrrrrrrrrr,99@;e;@99,rrrrrrrrrrrrrrr",
"rrrrrrrrrrrrr=999@eee#999*rrrrrrrrrrrrrr",
"rrrrrrrrrrrr*9999@eee#9999*rrrrrrrrrrrrr",
"rrrrrrrrrrr*,9999@eee#9999,*rrrrrrrrrrrr",
"rrrrrrrrrrr*,,999@eee@999,,*rrrrrrrrrrrr",
"rrrrrrrrrrr*,,,,,@;e;@,,,,,*rrrrrrrrrrrr",
"rrrrrrrrrrr*,,,,,@;;;@,,,,,*rrrrrrrrrrrr",
"rrrrrrrrrrr*,,,,,@:;;+,,,,,*rrrrrrrrrrrr",
"rrrrrrrrrrr*,,,,,#;;;+,,,,,*rrrrrrrrrrrr",
"rrrrrrrrrrr**<2,2#:;;%,,1,**rrrrrrrrrrrr",
"rrrrrrrrrrr**-5*********7-**rrrrrrrrrrrr",
"rrrrrrrrrr*22*-6qqqqqqq7-*2<*rrrrrrrrrrr",
"rrrrrrrrr 00002**2<<12**20000*rrrrrrrrrr",
"rrrrrrrr3*00000*209090<*00000,rrrrrrrrrr",
"rrrrrrrrr*00000*0000000*000000rrrrrrrrrr",
"rrrrrrrrr ;***<0000<00002***;% rrrrrrrrr",
"rrrrrrrrX%e;;*8000020000%;eee% rrrrrrrrr",
"rrrrrrrrr%e:**190009000%;eeee% rrrrrrrrr",
"rrrrrrrrr%**2*1<2000002***;e;% rrrrrrrrr",
"rrrrrrrrr#001****2<222*000**;%orrrrrrrrr",
"rrrrrrrrrr,22*+:eweee;*20002* rrrrrrrrrr",
"rrrrrrrrrr*************2002* rrrrrrrrrrr",
"rrrrrrrrrrrrr*200000002**** rrrrrrrrrrrr",
"rrrrrrrrrrrr@;e;*20002*;e;% rrrrrrrrrrrr",
"rrrrrrrrrrrr#eee;*****;eee% rrrrrrrrrrrr",
"rrrrrrrrrrrr+;eeeee%;eeee;%.rrrrrrrrrrrr",
"rrrrrrrrrrrr#;;eee;%;eeee;% rrrrrrrrrrrr",
"rrrrrrrrrrrrO**;ee;%%;eee%* rrrrrrrrrrrr",
"rrrrrrrrrr**1200*;%**2***2*&rrrrrrrrrrrr",
"rrrrrrrrrr**22000*%**22222***rrrrrrrrrrr",
"rrrrrrrrrr***22222***********rrrrrrrrrrr",
"rrrrrrrrrr******************rrrrrrrrrrrr",
"rrrrrrrrrrrr******rrrrr**&rrrrrrrrrrrrrr",
"rrrrrrrrrrrr4    rrrrrrrrrrrrrrrrrrrrrrr",
"rrrrrrrrrrrrrrrrrrrrrrrrrrrrrrrrrrrrrrrr",
"rrrrrrrrrrrrrrrrrrrrrrrrrrrrrrrrrrrrrrrr",
"rrrrrrrrrrrrrrrrrrrrrrrrrrrrrrrrrrrrrrrr",
"rrrrrrrrrrrrrrrrrrrrrrrrrrrrrrrrrrrrrrrr"
};
