/* XPM */
static char *result[] = {
/* columns rows colors chars-per-pixel */
"40 40 175 2 ",
"   c black",
".  c #0A080C",
"X  c #140F09",
"o  c #16110B",
"O  c #18130F",
"+  c #090D16",
"@  c #0A0F19",
"#  c #261C12",
"$  c #2A221B",
"%  c #3B2C1C",
"&  c #322518",
"*  c #101328",
"=  c #111B2D",
"-  c #181D3C",
";  c #372D24",
":  c #3F3429",
">  c #24233C",
",  c #483522",
"<  c #45392D",
"1  c #503B26",
"2  c #523E29",
"3  c #453734",
"4  c #59422A",
"5  c #4F4133",
"6  c #584839",
"7  c #574635",
"8  c #674C30",
"9  c #684B30",
"0  c #6C5033",
"q  c #62503F",
"w  c #755637",
"e  c #1A2944",
"r  c #1E2F4D",
"t  c #1F2448",
"y  c #232C55",
"u  c #213455",
"i  c #29355D",
"p  c #2E2E47",
"a  c #3B3C6F",
"s  c #313B79",
"d  c #3B3D72",
"f  c #2C356B",
"g  c #2F4979",
"h  c #3F4078",
"j  c #4A4443",
"k  c #715C49",
"l  c #725940",
"z  c #77624D",
"x  c #79634F",
"c  c #7A6155",
"v  c #454273",
"b  c #7E6462",
"n  c #945C3E",
"m  c #8F593A",
"M  c #977639",
"N  c #906538",
"B  c #8D6842",
"V  c #9C6F48",
"C  c #9E754A",
"Z  c #806953",
"A  c #937254",
"S  c #A46C48",
"D  c #A36F45",
"F  c #A57844",
"G  c #B27C4F",
"H  c #B57C51",
"J  c #9B7F64",
"K  c #90777D",
"L  c #A68143",
"P  c #AC8448",
"I  c #B4894D",
"U  c #B5884E",
"Y  c #B28353",
"T  c #BB8B56",
"R  c #B98A5E",
"E  c #AD8D6F",
"W  c #AE8E70",
"Q  c #A08A7B",
"!  c #BC9A7A",
"~  c #C38A59",
"^  c #C28E57",
"/  c #C39257",
"(  c #C3915C",
")  c #CA945E",
"_  c #CD995E",
"`  c #CB996D",
"'  c #C69362",
"]  c #D39C63",
"[  c #D29F6F",
"{  c #CC9B72",
"}  c #D9A066",
"|  c #DBA36A",
" . c #C4A07D",
".. c #CDA073",
"X. c #DCA771",
"o. c #DFAA75",
"O. c #E1AD79",
"+. c #E2B07E",
"@. c #3F4689",
"#. c #355389",
"$. c #3E579D",
"%. c #45498A",
"&. c #4E4F80",
"*. c #424D99",
"=. c #4C539A",
"-. c #565590",
";. c #556B97",
":. c #796F94",
">. c #4352A5",
",. c #4D56A9",
"<. c #4E59B0",
"1. c #515EBB",
"2. c #4065A6",
"3. c #456DB3",
"4. c #4871BA",
"5. c #6066B7",
"6. c #4F5FC1",
"7. c #4F64C4",
"8. c #5564C8",
"9. c #586AD7",
"0. c #5A6CDC",
"q. c #5767D1",
"w. c #517FD1",
"e. c #7B7EC6",
"r. c #616ED2",
"t. c #6873D5",
"y. c #5C76E4",
"u. c #5B6EE0",
"i. c #667EE0",
"p. c #8C7782",
"a. c #5484D9",
"s. c #7185D9",
"d. c #5A83E4",
"f. c #5C90ED",
"g. c #5F86F0",
"h. c #6091EA",
"j. c #648CF0",
"k. c #6293F6",
"l. c #6295FB",
"z. c #639BFE",
"x. c #6C9CF4",
"c. c #708EE8",
"v. c #7BA2EE",
"b. c #968093",
"n. c #AB8F94",
"m. c #BF9C92",
"M. c #9A87A3",
"N. c #9D8BA7",
"B. c #8886BA",
"V. c #8592B5",
"C. c #A692AB",
"Z. c #BBB3BE",
"A. c #C39D8B",
"S. c #CAA683",
"D. c #D8AC85",
"F. c #D6B08B",
"G. c #DCB48E",
"H. c #DFB89B",
"J. c #E2B282",
"K. c #E7B788",
"L. c #E8B98B",
"P. c #E7BD95",
"I. c #EBBE92",
"U. c #D1BBAF",
"Y. c #CBB9B3",
"T. c #E1BFA3",
"R. c #EDC196",
"E. c #E7C19F",
"W. c #EEC39A",
"Q. c #9199D1",
"!. c #94A9DC",
"~. c #AFB1C7",
"^. c #AAAFCB",
"/. c #89A5E4",
"(. c None",
/* pixels */
"(.(.(.(.(.              (.(.(.(.(.(.(.(.(.(.(.(.(.(.(.(.(.(.(.(.(.(.(.(.(.(.(.(.",
"(.(.(.(.(.O O O O O O O O (.(.(.(.(.(.(.(.(.(.(.(.(.(.(.(.(.(.(.(.(.(.(.(.(.(.(.",
"(.(.(.(.; 6 z z x z x k 5 O (.(.(.(.(.(.(.(.(.(.(.(.(.(.(.(.(.(.(.(.(.(.(.(.(.(.",
"(.(.(.  < E F.F.F.F.F. .k O   (.(.(.(.(.(.(.(.(.(.(.(.(.(.(.(.(.(.(.(.(.(.(.(.(.",
"(.(.& : z ! W.W.W.W.W.G.E 6 : $ (.(.(.(.(.(.(.(.(.(.(.(.(.(.(.(.(.(.(.(.(.(.(.(.",
"  o q Q ! F.W.W.W.W.W.P. .W c :   (.(.(.(.(.(.(.(.(.(.(.(.(.(.(.(.(.(.(.(.(.(.(.",
"  O z D.R.W.W.W.W.W.W.W.R.R.W 6 O O (.(.(.(.(.(.(.(.(.(.(.(.(.(.(.(.(.(.(.(.(.(.",
"  O l { K.I.W.W.W.W.W.W.W.E.S.J k 5 O (.(.(.(.(.(.(.(.(.(.(.(.(.(.(.(.(.(.(.(.(.",
"  o 0 ' O.L.W.W.W.W.W.W.W.W.P.L. .k O   (.(.(.(.(.(.(.(.(.(.(.(.(.(.(.(.(.(.(.(.",
"  o 0 ( X.+.L.I.W.W.W.W.W.W.W.W.G.J 6 : $ (.(.(.(.(.(.(.(.(.(.(.(.(.(.(.(.(.(.(.",
"  o 0 ( | o.O.K.R.W.W.W.W.W.W.W.P.S.W Z :   (.(.(.(.(.(.(.(.(.(.(.(.(.(.(.(.(.(.",
"  o 8 Y ' ] | O.L.R.W.W.W.W.W.W.W.E.T.Q j @ @ (.(.(.(.(.(.(.(.(.(.(.(.(.(.(.(.(.",
"(.o , 8 B T | o.+.L.I.W.W.W.W.W.E.Y.~.V.;.g u @ (.(.(.(.(.(.(.(.(.(.(.(.(.(.(.(.",
"(.(.X o 1 C } | | O.L.R.W.W.W.W.T.~.v.x.f.w.g @   (.(.(.(.(.(.(.(.(.(.(.(.(.(.(.",
"(.(.(.  % w C Y ] O.O.K.I.R.T.U.Z.!.x.l.k.d.$.y - * (.(.(.(.(.(.(.(.(.(.(.(.(.(.",
"(.(.(.(.# % 1 B ' | O.O.L.R.U.^./.v.z.l.g.y.7.>.s -   (.(.(.(.(.(.(.(.(.(.(.(.(.",
"(.(.(.(.(.  o 8 Y ' ] | J.T.~./.z.z.l.j.i.t.t.t.=.p X X (.(.(.(.(.(.(.(.(.(.(.(.",
"(.(.(.(.(.(.X , 9 n R { A.C.Q.v.z.k.j.s.B.M.M.M.p.c 8 , X (.(.(.(.(.(.(.(.(.(.(.",
"(.(.(.(.(.(.(.X o 1 S { N.e.i.l.l.g.y.e.n.{ { { ` ' Y 8 o   (.(.(.(.(.(.(.(.(.(.",
"(.(.(.(.(.(.(.(.  % l A :.r.y.y.j.s.e.N.A.o.o.o.O.o.[ A 7 : $ (.(.(.(.(.(.(.(.(.",
"(.(.(.(.(.(.(.(.(.# % 3 &.q.u.i.t.B.n.S.F.L.L.L.K.K.K. .E Z :   (.(.(.(.(.(.(.(.",
"(.(.(.(.(.(.(.(.(.(.  + f 6.0.u.t.N.{ o.L.E.W.W.W.W.W.W.W.E 6 O O (.(.(.(.(.(.(.",
"(.(.(.(.(.(.(.(.(.(.  + y *.1.q.t.M.{ o.L.W.W.W.W.W.W.W.W.S.J k 5 O (.(.(.(.(.(.",
"(.(.(.(.(.(.(.(.(.(.  . > a =.8.t.N.{ o.L.W.W.W.W.W.W.W.W.P.G. .k O   (.(.(.(.(.",
"(.(.(.(.(.(.(.(.(.* - t y a %.<.5.p.{ X.J.L.I.R.W.W.W.I.L.L.L.o.A 2 ; # (.(.(.(.",
"(.(.(.(.(.(.(.(.  - s $.%.h h %.-.K ` | o.o.K.R.W.W.R.K.O.o.O...R F w %   (.(.(.",
"(.(.(.(.(.(.(.@ @ u >.9.<.%.h a v Z R ' ] | O.I.R.I.I.O.| } ] ] ] ] C 1 o X (.(.",
"(.(.(.(.(.(.@ u g $.7.0.8.<.%.y > j 8 B T } o.+.J.J.+.o.| _ T I / ] T B 0 , X   ",
"(.(.(.(.(.  @ g a.d.y.0.0.9.*.t . . X 1 C } | | | | | } } / P M U _ ] ) Y 9 o   ",
"(.(.(.(.= e i 2.f.k.g.y.7.>.s -       % w C T ] } } } _ / I P L Y ~ ) ] / 0 o   ",
"(.(.(.  e #.4.a.l.l.k.d.*.u - * (.(.(.# % 1 B ) } } ] / L P I / H S H ) ^ 0 o   ",
"(.(.    r 3.z.z.l.k.f.a.g @   (.(.(.(.(.  X 8 Y _ ] ] I M L T ) G n S ~ ' 0 o   ",
"(.(.    r 3.z.z.z.a.2.g u @ (.(.(.(.(.(.(.o , 8 B T ] / I I I L V m D ~ ( 0 O   ",
"(.(.    r 3.z.z.z.4.i @ @ (.(.(.(.(.(.(.(.(.o o 1 C } } ] T L M N m S ~ ^ w X   ",
"(.(.(.  e #.3.3.3.#.e   (.(.(.(.(.(.(.(.(.(.(.  & w C T ] / I F F S D V B 4 o   ",
"(.(.(.(.= e r r r e = (.(.(.(.(.(.(.(.(.(.(.(.(.$ % 1 B ) } / ( ~ ~ V 9 % & (.(.",
"(.(.(.(.(.          (.(.(.(.(.(.(.(.(.(.(.(.(.(.(.  o 8 Y ( ^ ( / ( B %   (.(.(.",
"(.(.(.(.(.(.(.(.(.(.(.(.(.(.(.(.(.(.(.(.(.(.(.(.(.(.X , 8 0 0 0 0 0 4 & (.(.(.(.",
"(.(.(.(.(.(.(.(.(.(.(.(.(.(.(.(.(.(.(.(.(.(.(.(.(.(.(.X o o o o o o X (.(.(.(.(.",
"(.(.(.(.(.(.(.(.(.(.(.(.(.(.(.(.(.(.(.(.(.(.(.(.(.(.(.                (.(.(.(.(."
};
