/* XPM */
static char *result[] = {
/* columns rows colors chars-per-pixel */
"40 40 202 2 ",
"   c #1D1E1F",
".  c #2F2E2F",
"X  c #3D293A",
"o  c #712E29",
"O  c #7D3E2E",
"+  c #7A3C3A",
"@  c #643933",
"#  c #322A46",
"$  c #1F2E66",
"%  c #1D3060",
"&  c #283977",
"*  c #323E75",
"=  c #303866",
"-  c #40354F",
";  c #573A48",
":  c #4C395A",
">  c #5F3E58",
",  c #2B4377",
"<  c #1E7270",
"1  c #267C7A",
"2  c #4D404B",
"3  c #57404F",
"4  c #6D464F",
"5  c #424477",
"6  c #54546F",
"7  c #685872",
"8  c #477B7F",
"9  c #707A7E",
"0  c #656B7A",
"q  c #9A3803",
"w  c #99310E",
"e  c #AA3907",
"r  c #B13B02",
"t  c #9C3F20",
"y  c #823C26",
"u  c #8C420E",
"i  c #B94707",
"p  c #AF510A",
"a  c #A9431A",
"s  c #BC5214",
"d  c #8C432E",
"f  c #925130",
"g  c #A14828",
"h  c #B45021",
"j  c #A3573A",
"k  c #BC682B",
"l  c #B67538",
"z  c #BC6D3C",
"x  c #C95503",
"c  c #D25B08",
"v  c #C35F18",
"b  c #D36908",
"n  c #C56818",
"m  c #D36B16",
"M  c #D87616",
"N  c #E37205",
"B  c #EC7703",
"V  c #F37F0E",
"C  c #E07614",
"Z  c #EF7F11",
"A  c #CD742C",
"S  c #D47A2F",
"D  c #955547",
"F  c #8E5C56",
"G  c #89685F",
"H  c #AB7948",
"J  c #B57649",
"K  c #A7795E",
"L  c #AE6F5A",
"P  c #8D716E",
"I  c #A87569",
"U  c #C07E43",
"Y  c #F78610",
"T  c #CC823F",
"R  c #D48533",
"E  c #E68D3D",
"W  c #BE8747",
"Q  c #AB8267",
"!  c #B39969",
"~  c #CA8647",
"^  c #D38545",
"/  c #D18F57",
"(  c #EB9C4F",
")  c #E89D5E",
"_  c #D19967",
"`  c #C3876A",
"'  c #354B88",
"]  c #375691",
"[  c #265185",
"{  c #3B4FA5",
"}  c #3B56A9",
"|  c #3369B3",
" . c #465387",
".. c #4B6389",
"X. c #5F6D89",
"o. c #476E9A",
"O. c #7B7984",
"+. c #737990",
"@. c #516EA4",
"#. c #4664A8",
"$. c #667EAC",
"%. c #417AC2",
"&. c #278785",
"*. c #379997",
"=. c #3B8E8B",
"-. c #3F88BC",
";. c #3EA5A4",
":. c #439B9B",
">. c #5A9C9D",
",. c #6C8497",
"<. c #5693BC",
"1. c #748EAE",
"2. c #7C96AF",
"3. c #618FB5",
"4. c #7888B5",
"5. c #6497BC",
"6. c #7C92BF",
"7. c #49A3A4",
"8. c #53AAAC",
"9. c #5DA5AE",
"0. c #5AA6B3",
"q. c #61ADB6",
"w. c #66B2B7",
"e. c #3BAAD7",
"r. c #6184C7",
"t. c #4AA5D3",
"y. c #56ABD6",
"u. c #40B0DA",
"i. c #57B4DF",
"p. c #7EA2C1",
"a. c #6FBEC2",
"s. c #67ABD7",
"d. c #79ABD3",
"f. c #6BB5D9",
"g. c #7CB2D9",
"h. c #7AB9DE",
"j. c #69A8C6",
"k. c #56B2E2",
"l. c #79BDE4",
"z. c #62C0E2",
"x. c #7ECBEF",
"c. c #878A88",
"v. c #8F9399",
"b. c #A09194",
"n. c #BCA69D",
"m. c #8E99A3",
"M. c #838FBE",
"N. c #8A9CB4",
"B. c #8F94A7",
"V. c #8AADBB",
"C. c #96A3B8",
"Z. c #94B5B7",
"A. c #BFAFA9",
"S. c #AAAAB6",
"D. c #B5AEB1",
"F. c #B5B7BB",
"G. c #CB9F87",
"H. c #D6A787",
"J. c #D5A897",
"K. c #EEBD9F",
"L. c #E6A782",
"P. c #D9B9A8",
"I. c #D6BCB3",
"U. c #EABEA5",
"Y. c #9CC0BF",
"T. c #F3C9AB",
"R. c #8A9ECB",
"E. c #87A9CB",
"W. c #8FB0CC",
"Q. c #85B5DB",
"!. c #8BB8D9",
"~. c #99BBDA",
"^. c #91B7D9",
"/. c #97AED0",
"(. c #A5BBD0",
"). c #AFB5C8",
"_. c #83BAE1",
"`. c #C4B5C2",
"'. c #9EC3DD",
"]. c #ABC4DC",
"[. c #A8C7DE",
"{. c #B9C3CF",
"}. c #84C2E6",
"|. c #8AC9EC",
" X c #9AC8E8",
".X c #92D2EF",
"XX c #A8C9E3",
"oX c #B8D2E7",
"OX c #C7C8C9",
"+X c #DACFC7",
"@X c #CBD4DD",
"#X c #D6D5D6",
"$X c #D2D1D0",
"%X c #C5D4E2",
"&X c #CED8E0",
"*X c #D3DDE5",
"=X c #DCE1E8",
"-X c #E7E7E8",
";X c #E7E8E9",
":X c #E8E8E8",
">X c #FCF6F4",
",X c None",
/* pixels */
",X,X,X,X,X,X,X,X,X,X,X,X,X,X,X,X,X,X,X,X,X,X,X,X,X,X,X,X,X,X,X,X,X,X,X,X,X,X,X,X",
",X,X,X,X,X,X,X,X,X,X,X,X,X,X,X,X,X,X,X-X,X,X,X,X,X,X,X,X,X,X,X,X,X,X,X,X,X,X,X,X",
",X,X,X,X,X,X,X,X,X,X,X,X,X,X,X,X,X,X,X,X,X,X,X,X,X,X,X,X,X,X,X,X,X,X,X,X,X,X,X,X",
",X,X,X,X,X,X,X,X,X,X,X,X,X,X,X,X,X,X,X7.>.,X,X,X,X,X,X,X,X,X,X,X,X,X,X,X,X,X,X,X",
",X,X,X,X,X,X,X,X,X,X,X,X,X,X,X,X,X,Xw.*.;.:.,X,X,X,X,X,X,X,X,X,X,X,X,X,X,X,X,X,X",
",X,X,X,X,X,X,X,X,X,X,X,X,X,X,X,X,Xq.7.8.&.7.=.,X,X,X,X,X,X,X,X,X,X,X,X,X,X,X,X,X",
",X,X,X,X,X,X,X,X,X,X,X,X,X,X,X,X,X9.w.8.7.*.&.Z.,X,X,X,X,X,X,X,X,X,X,X,X,X,X,X,X",
",X,X,X,X,X,X,X,X,X,X,X,X,X,Xy.,X^.q.8.w.:.1 < Z.:X[.Q.oXXX,X,X,X,X,X,X,X,X,X,X,X",
",X,X,X,X,X,X,X,X,X,X,X,X,X,Xk.d.!.0.>.,X,X,X1 Z.=Xf.(.g.s.,X,X,X,X,X,X,X,X,X,X,X",
",X,X,X,X,X,X,X,X,X,X,X,X,X,Xi.l.,X,X,X,X,X,X8 d.(._. X!.^.,X,X,X,X,X,X,X,X,X,X,X",
",X,X,X,X,X,X,X,X,X,X,X,X,X,Xx.x.,X,X,X,X,X,X9 t._.|._.~.*X,X,X,X,X,X,X,X,X,X,X,X",
",X,X,X,X,X,X,X,X,X,X,X,X,X,X_.s.V.H A ,X,X,Xn G _..Xs.oX;X,X,X,X,X,X,X,X,X,X,X,X",
",X,X,X,X,X,X,X,X,X,X,X,XXX,X,X,X_ ~ M ,X,X^ M ,XF.(.g.XX;X,X,X,X,X,X,X,X,X,X,X,X",
",X,X,X,X,X,X,X,X,X,X,X,X,X,X,X,XJ m M H._ n W b.S.).~.'.;X,X,X,X,X,X,X,X,X,X,X,X",
",X,X,X,X,X,X,X,X,X,X,X,X X,X,X,X,Xn j P.Y A A g N.S.%X%X*X,X,X,X,X,X,X,X,X,X,X,X",
",X,X,X,X,X,X,X,X,X,X,X,X^.,X,X,X,X~ W k s L A d OXn.C.XX,X,X,X,X,X,X,X,X,X,X,X,X",
",X,X,X,X,X,X,X,X,X,X,X,X^.^.(.,X,X,XJ e w P D 4 +XH.C.].,X,X,X,X,X,X,X,X,X,X,X,X",
",X,X,X,X,X,X,X,X,X,X,X*Xt.f.OX,X,X1. .2 # = ] X.V.J.2.oX,X,X,X,X,X,X,X,X,X,X,X,X",
",X,X,X,X,X,X,X,X,X,X,X=Xu.y.$XK.S.,.4 3 ; * { & $XL.D. X,X,X,X,X,X,X,X,X,X,X,X,X",
",X,X,X,X,X,X,X,X,X,X,X-X!.e.N.C.5.l b N x : 5 ' #XI 0 [.,X,X,X,X,X,X,X,X,X,X,X,X",
",X,X,X,X,X,X,X,X,X,X,X,X=Xf.%.| m./ / Y g : 5 R.@.& ..&X,X,X,X,X,X,X,X,X,X,X,X,X",
",X,X,X,X,X,X,X,X,X,X,X,X,X%X4. .Q ( >XU.J.M.p.R.[ ' +.;X,X,X,X,X,X,X,X,X,X,X,X,X",
",X,X,X,X,X,X,X,X,X,X,X,X,X,X{.T.l b J.Y e { * ; P H.P.,X,X,X,X,X,X,X,X,X,X,X,X,X",
",X,X,X,X,X,X,X,X,X,X,X,X,X,X{.H.Q R E J > { = e L ` P.,X,X,X,X,X,X,X,X,X,X,X,X,X",
",X,X,X,X,X,X,X,X,X,X,X,X,XQ.h.j.c.U Z a @ 7 ; w O A.,X,X,X,X,X,X,X,X,X,X,X,X,X,X",
",X,X,X,X,X,X,X,X,X,X,X,Xf.}.^.e.L k a + q B c i O ^.,X,X,X,X,X,X,X,X,X,X,X,X,X,X",
",X,X,X,X,X,X,X,X,X,X,X,Xh.x.!.y.W / m t Q _ ) c o W.,X,X,X,X,X,X,X,X,X,X,X,X,X,X",
",X,X,X,X,X,X,X,X,X,X,X,XoXz.i.f.! T B w {.^ h t + E.,X,X,X,X,X,X,X,X,X,X,X,X,X,X",
",X,X,X,X,X,X,X,X,X,X,X,X,X,X,Xm.R N i g OXx M I 4 p.,X,X,X,X,X,X,X,X,X,X,X,X,X,X",
",X,X,X,X,X,X,X,X,X,X,X,X,X,X,X,XB N i d OXb x j 4 3.,X,X,X,X,X,X,X,X,X,X,X,X,X,X",
",X,X,X,X,X,X,X,X,X,X,X,X,X,X,X,Xx x e F @Xn v P 7 j.,X,X,X,X,X,X,X,X,X,X,X,X,X,X",
",X,X,X,X,X,X,X,X,X,X,X,X,X,X,Xm n p s O.$XN U =X`.(.,X,X,X,X,X,X,X,X,X,X,X,X,X,X",
",X,X,X,X,X,X,X,X,X,X,X,X,X,X,X,Xf F D m.OX~ I.F 7 /.,X,X,X,X,X,X,X,X,X,X,X,X,X,X",
",X,X,X,X,X,X,X,X,X,X,X,X,X,X,X).' X 6 ,X,XC.B.# o.XX,X,X,X,X,X,X,X,X,X,X,X,X,X,X",
",X,X,X,X,X,X,X,X,X,X,X,X,X,X,XW.} $ ,X,X,XE.r.& ..,X,X,X,X,X,X,X,X,X,X,X,X,X,X,X",
",X,X,X,X,X,X,X,X,X,X,X,X,X,X,X,X,X[ <.,X,XW.#.& , ,X,X,X,X,X,X,X,X,X,X,X,X,X,X,X",
",X,X,X,X,X,X,X,X,X,X,X,X,X,X,X,X,X-.!.,X,X%X$.} % O.,X,X,X,X,X,X,X,X,X,X,X,X,X,X",
",X,X,X,X,X,X,X,X,X,X,X,X,X,X,X,X,X,X,X,X,X,X#XM..   ,X,X,X,X,X,X,X,X,X,X,X,X,X,X",
",X,X,X,X,X,X,X,X,X,X,X,X,X,X,X,X,X,X,X,X,X,X,X#Xb.c.,X,X,X,X,X,X,X,X,X,X,X,X,X,X",
",X,X,X,X,X,X,X,X,X,X,X,X,X,X,X,X,X,X,X,X,X,X,X,X,X,X,X,X,X,X,X,X,X,X,X,X,X,X,X,X"
};
