/* XPM */
static char *result[] = {
/* columns rows colors chars-per-pixel */
"40 40 140 2 ",
"   c black",
".  c #6A110D",
"X  c #5B201B",
"o  c #7E3C35",
"O  c #88261C",
"+  c #86022B",
"@  c #8D032B",
"#  c #89032D",
"$  c #8D032C",
"%  c #8A052C",
"&  c #97342E",
"*  c #892638",
"=  c #B53026",
"-  c #9C4338",
";  c #CE4337",
":  c #974A41",
">  c #9C5147",
",  c #BA455B",
"<  c #AE5F5B",
"1  c #A8634B",
"2  c #A96D57",
"3  c #A8615A",
"4  c #B57751",
"5  c #B57B55",
"6  c #B5795E",
"7  c #B46E65",
"8  c #B77763",
"9  c #B97A61",
"0  c #BA7A67",
"q  c #BD7F68",
"w  c #BD6670",
"e  c #C54D63",
"r  c #D1676F",
"t  c #C07E65",
"y  c #CC7476",
"u  c #CB8477",
"i  c #C68C73",
"p  c #C18D7E",
"a  c #C8887D",
"s  c #CA8B7E",
"d  c #CE9274",
"f  c #CC9077",
"g  c #C99078",
"h  c #D39578",
"j  c #D2987E",
"k  c #DC9D79",
"l  c #DD9F7C",
"z  c #DB7F84",
"x  c #BE9384",
"c  c #CE8A80",
"v  c #C89183",
"b  c #CC9281",
"n  c #CF9380",
"m  c #CA9384",
"M  c #CF9485",
"N  c #CF968B",
"B  c #CF938C",
"V  c #D19780",
"C  c #D79B81",
"Z  c #D39885",
"A  c #D39D84",
"S  c #DE9A86",
"D  c #D99789",
"F  c #DC9F8A",
"G  c #DD9E8C",
"H  c #CF9695",
"J  c #CF9E9A",
"K  c #DD9490",
"L  c #D39D92",
"P  c #D59D90",
"I  c #D49E91",
"U  c #D79895",
"Y  c #D99B93",
"T  c #E49D87",
"R  c #E49F88",
"E  c #E19D8C",
"W  c #D5A28C",
"Q  c #D9A28B",
"!  c #D8A18E",
"~  c #DCA48E",
"^  c #DEA88F",
"/  c #D4A291",
"(  c #DDA390",
")  c #DBA493",
"_  c #DFA793",
"`  c #D5A990",
"'  c #DBA398",
"]  c #DBA798",
"[  c #D9A99A",
"{  c #DCAB98",
"}  c #DDAA9A",
"|  c #DDAF98",
" . c #E3A48A",
".. c #E7A48C",
"X. c #EBAC8D",
"o. c #E9A793",
"O. c #E9A797",
"+. c #EBAF9A",
"@. c #E5B198",
"#. c #E6B19F",
"$. c #E3B49C",
"%. c #E9B49F",
"&. c #DAA8A0",
"*. c #DDA8A0",
"=. c #D4A6AB",
"-. c #D4ABA9",
";. c #E4B3A1",
":. c #E5B1A5",
">. c #E8B4A3",
",. c #ECB9AA",
"<. c #E9BAAC",
"1. c #EDBAAD",
"2. c #F5B5A1",
"3. c #F4B6A3",
"4. c #F3BDA5",
"5. c #E0B6B8",
"6. c #EFC1A8",
"7. c #F2C4AD",
"8. c #FAC4AB",
"9. c #FAC7AD",
"0. c #F7C4B6",
"q. c #FAC7B1",
"w. c #F8C7B2",
"e. c #F3C9B2",
"r. c #FDCBB2",
"t. c #FBCBB6",
"y. c #F4C3B8",
"u. c #FFD1B6",
"i. c #FAD1B8",
"p. c #F8D1BA",
"a. c #FAD0BB",
"s. c #FDD3B8",
"d. c #FFD3BA",
"f. c #F9D5BE",
"g. c #FFD9BC",
"h. c #FFD9BD",
"j. c #FDDBC7",
"k. c #FCDBC8",
"l. c #FAE5DF",
"z. c None",
/* pixels */
"z.z.z.z.z.z.z.z.z.z.z.z.z.z.z.z.z.z.z.z.z.z.z.z.z.z.z.z.z.z.z.z.z.z.z.z.z.z.z.z.",
"z.z.z.z.z.z.z.z.z.z.z.z.z.z.z.z.z.z.z.z.z.z.z.z.z.z.z.z.z.z.z.z.z.z.z.z.z.z.z.z.",
"z.z.z.z.z.z.z.z.z.z.z.z.z.z.z.z.z.z.z.z.z.z.z.z.z.z.z.z.z.z.z.z.z.z.z.z.z.z.z.z.",
"z.z.z.z.z.z.z.z.z.z.z.z.z.z.z.z.z.z.z.z.z.z.z.z.z.z.z.z.z.z.z.z.z.z.z.z.z.z.z.z.",
"z.z.z.z.z.z.z.z.z.z.z.z.z.z.z.z.z.z.z.z.z.z.z.z.z.z.z.z.z.z.z.z.z.z.z.z.z.z.z.z.",
"z.z.z.z.z.z.z.z.z.z.z.z.z.z.z.z.z.z.z.z.z.z.z.z.z.z.z.z.z.z.z.z.z.z.z.z.z.z.z.z.",
"z.z.z.z.z.z.z.z.z.z.z.z.z.z.z.z.z.z.z.z.z.z.z.z.z.z.z.z.z.z.z.z.z.z.z.z.z.z.z.z.",
"z.z.z.z.z.z.z.z.z.z.z.z.z.z.z.z.z.z.z.z.z.z.z.z.z.z.z.z.z.z.z.z.z.z.z.z.z.z.z.z.",
"z.z.z.z.z.z.z.z.z.z.z.z.z.z.z.z.z.z.z.z.z.z.z.z.z.z.z.z.z.z.z.z.z.z.z.z.z.z.z.z.",
"z.z.z.z.z.z.z.z.z.z.z.z.z.z.z.z.z.z.z.z.z.z.z.z.z.z.z.z.z.z.z.z.z.z.z.z.z.z.z.z.",
"z.z.z.z.z.z.z.z.z.z.z.z.z.z.z.z.z.z.z.z.z.z.z.z.z.z.z.z.z.z.z.z.z.z.z.z.z.z.z.z.",
"z.z.z.z.z.z.z.z.z.z.z.z.z.z.z.z.z.z.z.z.z.z.z.z.z.z.z.z.z.z.z.z.z.z.z.z.z.z.z.z.",
"z.z.z.z.z.z.z.z.z.z.z.z.z.z.z.z.z.z.z.z.z.z.z.z.z.z.z.z.z.z.z.z.z.z.z.z.z.z.z.z.",
"z.z.z.z.z.z.z.z.z.z.z.z.z.z.z.z.z.z.z.z.z.z.z.z.z.z.z.z.z.z.z.z.z.z.z.z.z.z.z.z.",
"z.z.z.z.z.z.z.z.z.z.z.z.z.z.z.z.z.z.z.z.z.z.z.z.z.z.z.z.z.z.z.z.z.z.z.z.z.z.z.z.",
"z.z.z.z.z.z.z.z.z.z.z.z.z.z.z.z.z.z.z.z.z.z.z.z.z.z.z.z.z.z.z.z.z.z.z.z.z.z.z.z.",
"z.z.z.z.z.z.z.z.z.z.z.z.z.z.z.z.z.z.z.z.z.z.z.z.z.z.z.z.z.z.z.z.z.z.z.z.z.z.z.z.",
"z.z.z.z.z.z.z.z.z.z.z.z.z.z.z.z.z.z.z.z.z.z.z.z.z.z.z.z.z.z.z.z.z.z.z.z.z.z.z.z.",
"z.z.z.z.z.z.z.z.z.z.z.z.z.z.z.z.z.z.z.z.z.z.$ @ z.z.z.z.z.z.z.z.z.z.z.z.z.z.z.z.",
"z.z.z.z.z.z.z.z.z.z.z.z.z.z.z.z.z.z.z.z.H U w % +   z.z.z.z.z.z.z.z.z.z.z.z.z.z.",
"z.z.z.z.z.z.z.z.z.z.z.z.z.z.z.z.z.z.z.z.Y O.2.e #   z.z.z.z.z.z.z.z.z.z.z.z.z.z.",
"z.z.z.z.z.z.z.z.z.z.z.z.z.z.z.z.z.z.z.c E o.3.y ,   z.z.z.z.z.z.z.z.z.z.z.z.z.z.",
"z.z.z.z.z.z.z.z.z.z.z.z.z.z.z.z.z.z.B D T ..S < 9.r.z.z.z.z.z.z.z.z.z.z.z.z.z.z.",
"z.z.z.z.z.z.z.z.z.z.z.z.z.z.z.z.z.z.N G R t 1 X.u.d.z.z.z.z.z.z.z.z.z.z.z.z.z.z.",
"z.z.z.z.z.z.z.z.z.z.z.z.z.z.z.z.z.z.I (  .9 4 l 8.h.z.z.z.z.z.z.z.z.z.z.z.z.z.z.",
"z.z.z.z.z.z.z.z.z.z.z.z.z.z.z.z.z.L ) ~ C 2 5 k w.g.i.z.z.z.z.z.z.z.z.z.z.z.z.z.",
"z.z.z.z.z.z.z.z.z.z.z.z.z.z.z.z.z.P Z V i z.> h 4.s.e.z.z.z.z.z.z.z.z.z.z.z.z.z.",
"z.z.z.z.z.z.z.z.z.z.z.z.z.z.z.z.&.s 0 z.z.z.z.* r z K z.z.z.z.z.z.z.z.z.z.z.z.z.",
"z.z.z.z.z.z.z.z.z.z.z.z.z.z.[ } a 7 z.z.z.z.z.M @.7.f.u z.z.z.z.z.z.z.z.z.z.z.z.",
"z.z.z.z.z.z.z.z.z.z.z.z.z./ { W 8 z.z.z.z.z.z.q ^ %.a.b z.z.z.z.z.z.z.z.z.z.z.z.",
"z.z.z.z.z.z.z.z.z.z.z.z.z.j A z.z.z.z.z.z.z.z.z.! #.t.z.z.z.z.z.z.z.z.z.z.z.z.z.",
"z.z.z.z.z.z.z.z.z.z.z.z.g d z.z.z.z.z.z.z.z.z.z.z.>.q.z.z.z.z.z.z.z.z.z.z.z.z.z.",
"z.z.z.z.z.z.z.z.z.z.  J f 6 z.z.z.z.z.z.z.z.z.z.m ,.: z.; z.z.z.z.z.z.z.z.z.z.z.",
"z.z.z.z.z.z.z.z.z.z.  =.' n F z.z.z.z.z.z.z.z.z.v ;.- = & z.z.z.z.z.z.z.z.z.z.z.",
"z.z.z.z.z.z.z.z.z.z.  -.5.:.Q z.z.z.z.z.z.z.z.z.z.p O . 3 *.z.z.z.z.z.z.z.z.z.z.",
"z.z.z.z.z.z.z.z.z.z.z.z.z.] +.z.z.z.z.z.z.z.z.z.z.x X o <.0.y.l.z.z.z.z.z.z.z.z.",
"z.z.z.z.z.z.z.z.z.z.z.z.z.z.z.z.z.z.z.z.z.z.z.z.z.j.k.p.6._ 1.z.z.z.z.z.z.z.z.z.",
"z.z.z.z.z.z.z.z.z.z.z.z.z.z.z.z.z.z.z.z.z.z.z.z.z.$.| ` z.z.z.  z.z.z.z.z.z.z.z.",
"z.z.z.z.z.z.z.z.z.z.z.z.z.z.z.z.z.z.z.z.z.z.z.z.z.z.z.z.z.z.z.z.z.z.z.z.z.z.z.z.",
"z.z.z.z.z.z.z.z.z.z.z.z.z.z.z.z.z.z.z.z.z.z.z.z.z.z.z.z.z.z.z.z.z.z.z.z.z.z.z.z."
};
