/* XPM */
static char *result[] = {
/* columns rows colors chars-per-pixel */
"40 40 133 2 ",
"   c #0E0E0E",
".  c gray7",
"X  c #191616",
"o  c #1C1818",
"O  c #1D1919",
"+  c #211D1D",
"@  c #241F1F",
"#  c #242020",
"$  c #262121",
"%  c #282323",
"&  c #2A2626",
"*  c #2B2626",
"=  c #2B2727",
"-  c #2D2929",
";  c #2E2828",
":  c #2E2A2A",
">  c #322E2E",
",  c #323030",
"<  c #363333",
"1  c #393434",
"2  c #3A3535",
"3  c #3B3737",
"4  c #3D3838",
"5  c #3C3939",
"6  c #3F3A3A",
"7  c #423D3D",
"8  c #433E3E",
"9  c #464343",
"0  c #4A4646",
"q  c #4E4A4A",
"w  c #564F4F",
"e  c #585353",
"r  c #585555",
"t  c #5C5959",
"y  c #5D5959",
"u  c #5F5858",
"i  c #5F5959",
"p  c #5E5B5B",
"a  c #605D5D",
"s  c #625C5C",
"d  c #615E5E",
"f  c #636060",
"g  c #646060",
"h  c #656161",
"j  c #666262",
"k  c #6B6464",
"l  c #696666",
"z  c #6E6666",
"x  c #746C6C",
"c  c #777474",
"v  c #787070",
"b  c #787676",
"n  c #7B7979",
"m  c #7D7A7A",
"M  c #7D7B7B",
"N  c #7F7E7E",
"B  c #871C1C",
"V  c #C71C1C",
"C  c #D71F1F",
"Z  c #DB3131",
"A  c #9F4A4A",
"S  c #837575",
"D  c #817E7E",
"F  c #827F7F",
"G  c #D14343",
"H  c #E24F4F",
"J  c #DF7575",
"K  c #EC7979",
"L  c #838080",
"P  c #858080",
"I  c #878585",
"U  c #8B8686",
"Y  c #8A8888",
"T  c #8C8989",
"R  c #8F8C8C",
"E  c #959393",
"W  c #999393",
"Q  c #999797",
"!  c #9D9797",
"~  c #9F9999",
"^  c #9E9D9D",
"/  c #9F9D9D",
"(  c #BD8383",
")  c #A19D9D",
"_  c #A09E9E",
"`  c #A39E9E",
"'  c #A2A1A1",
"]  c #A3A2A2",
"[  c #A5A0A0",
"{  c #A6A2A2",
"}  c #A7A5A5",
"|  c #ADACAC",
" . c #AFADAD",
".. c #B0ACAC",
"X. c #B1ACAC",
"o. c #B0AFAF",
"O. c #B4B0B0",
"+. c #B7B3B3",
"@. c #B9B8B8",
"#. c #BBBABA",
"$. c #BCB8B8",
"%. c #BDBBBB",
"&. c #BEBDBD",
"*. c #BFBEBE",
"=. c #D68585",
"-. c #EE8989",
";. c #C0BFBF",
":. c #C2BFBF",
">. c #C1C0C0",
",. c #C3C2C2",
"<. c #C4C1C1",
"1. c #C5C1C1",
"2. c #C6C5C5",
"3. c #CAC9C9",
"4. c #CBCACA",
"5. c #CECDCD",
"6. c #D1D0D0",
"7. c #D5D3D3",
"8. c #D9D7D7",
"9. c #DBD9D9",
"0. c gray86",
"q. c #DDDCDC",
"w. c #DEDCDC",
"e. c #E0DDDD",
"r. c #FADEDE",
"t. c gray88",
"y. c #E2E2E2",
"u. c #E3E2E2",
"i. c #E4E3E3",
"p. c gray92",
"a. c #F5E1E1",
"s. c #FBE2E2",
"d. c None",
/* pixels */
"d.d.d.d.d.d.d.d.d.d.d.d.d.d.d.d.d.d.d.d.d.d.d.d.d.d.d.d.d.d.d.d.d.d.d.d.d.d.d.d.",
"d.d.d.d.d.d.d.d.d.d.d.d.d.d.d.d.d.d.d.d.d.d.d.d.d.d.d.d.d.d.d.d.d.d.d.d.d.d.d.d.",
"d.d.d.d.d.d.d.d.d.d.d.d.d.d.d.d.d.d.d.d.d.d.d.d.d.d.d.d.d.d.d.d.d.d.d.d.d.d.d.d.",
"d.d.d.d.d.d.d.d.d.d.d.d.d.d.d.d.d.d.d.d.d.d.d.d.d.d.d.d.d.d.d.d.d.d.d.d.d.d.d.d.",
"d.d.d.d.d.d.d.d.d.d.d.d.d.d.d.d.d.d.d.d.d.d.d.d.d.d.d.d.d.d.d.d.d.d.d.d.d.d.d.d.",
"d.d.d.d.d.d.d.d.d.d.d.d.d.d.d.d.d.d.d.d.d.d.d.d.d.d.d.d.d.d.d.d.d.d.d.d.d.d.d.d.",
"d.d.d.d.d.d.d.d.d.d.d.d.d.d.d.d.d.d.d.d.d.d.d.d.d.d.d.d.d.d.d.d.d.d.d.d.d.d.d.d.",
"d.d.d.d.d.d.d.d.d.d.d.d.d.d.d.d.d.d.d.d.d.d.d.d.d.d.d.d.d.d.d.d.d.d.d.d.d.d.d.d.",
"d.d.d.d.d.d.d.d.d.d.d.d.d.d.d.d.d.d.d.d.d.d.d.d.d.d.d.d.d.d.d.d.d.d.d.d.d.d.d.d.",
"d.d.d.d.d.d.d.d.d.d.d.d.d.d.d.d.d.d.d.d.d.d.d.d.d.d.d.d.d.d.d.d.d.d.d.d.d.d.d.d.",
"d.d.d.d.d.d.d.d.d.d.d.d.d.d.d.d.d...1.d.k   d.d.d.d.d.d.d.d.d.d.d.d.d.d.d.d.d.d.",
"d.d.d.d.d.d.d.d.d.d.d.d.d.d.d.d.d.) O.t.s . N d.d.d.d.d.d.d.d.d.d.d.d.d.d.d.d.d.",
"d.d.d.d.d.d.d.d.d.d.d.d.d.d.d.[ @.= - > + , ..d.d.d.d.d.d.d.d.d.d.d.d.d.d.d.d.d.",
"d.d.d.d.d.d.d.d.d.d.d.d.d.d.d.! o.o o o X < +.d.d.d.d.d.d.d.d.d.d.d.d.d.d.d.d.d.",
"d.d.d.d.d.d.d.d.d.d.d.d.d.d.d.8 b #.t ] ' # R d.d.d.d.d.d.d.d.d.d.d.d.d.d.d.d.d.",
"d.d.d.d.d.d.d.d.d.d.d.d.d.d.d.o a d.c q.q.o n d.d.d.d.d.d.d.d.d.d.d.d.d.d.d.d.d.",
"d.d.d.d.d.d.d.d.d.d.d.d.d.7.} c _ d.c q.d.c I %.d.d.d.d.d.d.d.d.d.d.d.d.d.d.d.d.",
"d.d.d.d.d.d.d.d.d.d.d.d.d.~ % d.d.d.c q.d.d.Q u 9.d.d.d.d.d.d.d.d.d.d.d.d.d.d.d.",
"d.d.d.d.d.d.d.d.d.d.d.d.d.W 4 d.d.d.S e.d.d.] i 8.d.d.d.d.d.d.d.d.d.d.d.d.d.d.d.",
"d.d.d.d.d.d.d.d.d.d.d.d.d.f d.d.d.d.K r.d.d.d.a >.d.d.d.d.d.d.d.d.d.d.d.d.d.d.d.",
"d.d.d.d.d.d.d.d.d.d.d.d.d.j d.d.d.d.K r.d.d.d.a &.d.d.d.d.d.d.d.d.d.d.d.d.d.d.d.",
"d.d.d.d.d.d.d.d.d.d.d.d.d.j q e 0 A Z G 0 0 0 & &.d.d.d.d.d.d.d.d.d.d.d.d.d.d.d.",
"d.d.d.d.d.d.d.d.d.d.d.d.d.d @ ; o B C V o o o o ,.d.d.d.d.d.d.d.d.d.d.d.d.d.d.d.",
"d.d.d.d.d.d.d.d.d.d.d.d.d.d F T L ( H J L L L 3 ,.d.d.d.d.d.d.d.d.d.d.d.d.d.d.d.",
"d.d.d.d.d.d.d.d.d.d.d.d.d.g d.d.d.d.-.s.d.d.d.a ;.d.d.d.d.d.d.d.d.d.d.d.d.d.d.d.",
"d.d.d.d.d.d.d.d.d.d.d.d.d.j 9.d.d.d.=.a.d.d.d.r &.d.d.d.d.d.d.d.d.d.d.d.d.d.d.d.",
"d.d.d.d.d.d.d.d.d.d.d.d.d.h v d.d.d.c q.d.d.<.1 *.d.d.d.d.d.d.d.d.d.d.d.d.d.d.d.",
"d.d.d.d.d.d.d.d.d.d.d.d.d.l x d.d.d.c q.d.d.:.6 2.d.d.d.d.d.d.d.d.d.d.d.d.d.d.d.",
"d.d.d.d.d.d.d.d.d.d.d.d.d.y.2 u.X.d.c q.d.$./ ^ d.d.d.d.d.d.d.d.d.d.d.d.d.d.d.d.",
"d.d.d.d.d.d.d.d.d.d.d.d.d.d.: w.` d.c q.d...Q @.d.d.d.d.d.d.d.d.d.d.d.d.d.d.d.d.",
"d.d.d.d.d.d.d.d.d.d.d.d.d.d.E D P 9.y { i.j Y 0.d.d.d.d.d.d.d.d.d.d.d.d.d.d.d.d.",
"d.d.d.d.d.d.d.d.d.d.d.d.d.d.d.@ j +.7 z q.o M d.d.d.d.d.d.d.d.d.d.d.d.d.d.d.d.d.",
"d.d.d.d.d.d.d.d.d.d.d.d.d.d.d.h m U 1 w | p } d.d.d.d.d.d.d.d.d.d.d.d.d.d.d.d.d.",
"d.d.d.d.d.d.d.d.d.d.d.d.d.d.d.d. .* $ + 9 p.d.d.d.d.d.d.d.d.d.d.d.d.d.d.d.d.d.d.",
"d.d.d.d.d.d.d.d.d.d.d.d.d.d.d.d.#.@ @ O 5 d.d.d.d.d.d.d.d.d.d.d.d.d.d.d.d.d.d.d.",
"d.d.d.d.d.d.d.d.d.d.d.d.d.d.d.d.d.3.5.4.6.d.d.d.d.d.d.d.d.d.d.d.d.d.d.d.d.d.d.d.",
"d.d.d.d.d.d.d.d.d.d.d.d.d.d.d.d.d.d.d.d.d.d.d.d.d.d.d.d.d.d.d.d.d.d.d.d.d.d.d.d.",
"d.d.d.d.d.d.d.d.d.d.d.d.d.d.d.d.d.d.d.d.d.d.d.d.d.d.d.d.d.d.d.d.d.d.d.d.d.d.d.d.",
"d.d.d.d.d.d.d.d.d.d.d.d.d.d.d.d.d.d.d.d.d.d.d.d.d.d.d.d.d.d.d.d.d.d.d.d.d.d.d.d.",
"d.d.d.d.d.d.d.d.d.d.d.d.d.d.d.d.d.d.d.d.d.d.d.d.d.d.d.d.d.d.d.d.d.d.d.d.d.d.d.d."
};
