/* XPM */
static char *result[] = {
/* columns rows colors chars-per-pixel */
"40 40 145 2 ",
"   c #150E06",
".  c #190F06",
"X  c #1B1206",
"o  c #171108",
"O  c #1B130B",
"+  c #1D1A13",
"@  c #201706",
"#  c #261A06",
"$  c #291C06",
"%  c #22160B",
"&  c #29170C",
"*  c #251A0C",
"=  c #2A1D0C",
"-  c #251C10",
";  c #2A1E11",
":  c #2C2007",
">  c #2C210D",
",  c #32250D",
"<  c #272013",
"1  c #2C2213",
"2  c #2C241B",
"3  c #2F281B",
"4  c #322512",
"5  c #362914",
"6  c #392B15",
"7  c #30271E",
"8  c #32291C",
"9  c #3A2D1B",
"0  c #3C311D",
"q  c #2F2B22",
"w  c #352D21",
"e  c #3C2F20",
"r  c #322F28",
"t  c #3D3223",
"y  c #36312B",
"u  c #39332C",
"i  c #393530",
"p  c #3E3A30",
"a  c #402D1C",
"s  c #42341F",
"d  c #423524",
"f  c #443825",
"g  c #443629",
"h  c #45392A",
"j  c #4A3D2D",
"k  c #423E34",
"l  c #4B3D31",
"z  c #443E39",
"x  c #4C412F",
"c  c #4C4234",
"v  c #45413B",
"b  c #4A423D",
"n  c #514333",
"m  c #544836",
"M  c #53463A",
"N  c #554A3C",
"B  c #5A4C3D",
"V  c #4C4743",
"C  c #4F4A42",
"Z  c #554D40",
"A  c #5B4C41",
"S  c #514D48",
"D  c #594F48",
"F  c #5D5243",
"G  c #55524D",
"H  c #5F554C",
"J  c #585452",
"K  c #625244",
"L  c #60564E",
"P  c #64594D",
"I  c #655C51",
"U  c #685E57",
"Y  c #6A614F",
"T  c #676157",
"R  c #6A6154",
"E  c #69645C",
"W  c #71675A",
"Q  c #746B5D",
"!  c #786C5C",
"~  c #676462",
"^  c #6C6761",
"/  c #6B6963",
"(  c #746C64",
")  c #796F60",
"_  c #757064",
"`  c #7B7265",
"'  c #77726A",
"]  c #7C746B",
"[  c #7F7770",
"{  c #7E7A75",
"}  c #7E7A78",
"|  c #81796E",
" . c #837C74",
".. c #887F75",
"X. c #847E79",
"o. c #897F7B",
"O. c #8B8377",
"+. c #86817A",
"@. c #8B837C",
"#. c #90877E",
"$. c #868481",
"%. c #8A8681",
"&. c #8E8983",
"*. c #938C85",
"=. c #938E89",
"-. c #989086",
";. c #96928B",
":. c #9B938C",
">. c #9A9691",
",. c #9E9995",
"<. c #9F9B98",
"1. c #A39D96",
"2. c #A29D9A",
"3. c #A5A19C",
"4. c #A7A6A2",
"5. c #AAA6A3",
"6. c #ADA9A5",
"7. c #AFAEAC",
"8. c #B0ADA9",
"9. c #B4B1AF",
"0. c #B6B5B3",
"q. c #BAB7B3",
"w. c #BCB9B5",
"e. c #BEBDBC",
"r. c #C2BFBD",
"t. c #C2C0BE",
"y. c #C6C5C3",
"u. c #C8C6C5",
"i. c #CAC8C6",
"p. c #CDCCCB",
"a. c #D1CFCC",
"s. c #D3D1CE",
"d. c #D5D4D3",
"f. c #D9D7D7",
"g. c #D9D8D6",
"h. c #DDDCDB",
"j. c #E1DEDE",
"k. c #E0E0DE",
"l. c #E6E5E3",
"z. c #E8E6E5",
"x. c #EAE9E6",
"c. c #EEEDEC",
"v. c #F0EFED",
"b. c #F8F7F4",
"n. c #FFFEFE",
/* pixels */
"* > ; & 4 & , 4 5 6 4 > > = ; * 1 = 1 = > > 5 , , 4 4 4 4 4 1 4 1 > = 1 > * * * ",
"= * O % O O & & + - - O = = * O % % % * < * + + * = 1 - - * * O = = & o O X   & ",
"= * O o O . 1 J J 0.i.7.t t ' i.y.r.r.( P 9.i.y.y.$.j 4.4.y.e.~ 4 1 % o       $ ",
"> * o o O o 4 J J 0.y.7.t g ' i.y.r.r.( P 0.y.y.y.$.j 4.4.y.e.~ 1 1 O         $ ",
"= - + % % % e y.i.b.n.k.j j ;.n.n.b.b.@.! x.n.n.n.6.c f.f.n.n.d.h h * o o X X & ",
"4 & O O % . 6 *.;.6.7.:.0 0 T 6.5.2.3.I A ,.4.4.4.' t &.=.5.6.,.h f * O o X o ; ",
"4 > ; 2 e e , w 8 c F m 5 5 t N N M M f d M M m M d 5 x c M M 0 , > 9 t 1 * & ; ",
"6 * G G y.&.4 O o k p.y.h t  .k.j.f.g.` R p.h.k.k.;.h q.q.d.S o ; ; ] s.~ % % , ",
"6 * G G y.&.4 o o z p.y.h h  .h.j.g.g.] R p.h.k.h.>.g q.q.d.S o ; < ] a.~ % % 1 ",
"5 > q.q.n.<.d i i % +.p.x c *.n.n.b.b.O.! x.n.n.n.4.j i.i.,.* y d d @.n.u.2 3 4 ",
"4 = i.i.n.<.l i.y.} % v d f =.n.n.b.b.@.) x.n.n.n.5.f v v + E i.M M @.n.f.3 q , ",
"> = 0.0.z.*.l u.y.d.z o , 4 o.z.k.k.k. .W s.z.x.z.>.9 o o r i.p.j j | l.t.2 2 * ",
", > c l A g 4 l c Z j 1 , , d M B N M f d A A B A d 4 1 2 j F c 6 4 d M x = = = ",
", 1 c c A g 4 l l N h 4 , , d M F M M d d Z K K M e 4 2 1 l F M 6 4 d B c = < > ",
"> > { { 1.U 9 @.%.<.,.%.s s $ u %.>.>.H A *.=.=.b O 4  .X.<.<.*.t d H <.+.< < > ",
"> > u.u.n.2.m j.h.n.n.j.B m t O L l.k.o.( h.( ( O q d d.d.n.n.z.M c +.n.d.3 8 = ",
"= 4 u.u.n.2.l j.h.n.n.k.B B O.G 2  . .' T +.< < v *.x s.d.n.n.l.m c @.n.g.3 8 = ",
"= > u.y.n.1.j g.g.n.b.k.m m ;.x. .+ - 1 < + / E k.4.x s.s.n.n.l.c m O.b.d.3 2 = ",
": 4 y.y.n.,.l g.f.n.b.k.m m ;.x.} + + 2 2 + / / k.3.x s.d.b.b.z.c c O.b.d.2 3 = ",
"= = ` ] -.L 9 [ | #.:.#.s s P *. .< 1 & : + ` ' *.T 0 ] | -.*.O.f f H -.{ < < * ",
"$ & I I ` N 9 R R ` | W s s N ( W 3 3 = = ; T R ` Z 6 I Y ` | W 0 0 m _ R < < $ ",
"$ & w.w.v.;.l p.p.v.x.s.x x #.k.$.+ + - 1 O _ ' g.,.f u.u.v.v.d.m c O.x.i.2 3 $ ",
"- ; i.u.n.2.j h.g.n.n.k.x n @.^ 1 E E ( R / < < L :.j d.d.n.n.k.B B &.n.d.3 2 & ",
"; ; u.u.n.1.j g.h.n.n.k.n n @.~ ; ~ ~ ( Y / < < L ;.f g.d.n.n.x.B B *.n.d.3 w & ",
"= - y.u.n.3.n g.g.n.n.k.n n c o c g.g.@.) f.G S O p f d.d.n.n.z.N B #.n.d.7 7 $ ",
"& * =.=.q.] h 1.1.q.w.3.d d @ y ,.8.8.T H 5.3.3.z O 6 ,.,.q.q.4.g f W q.<.; 2 & ",
"& * l k K j 6 m M K B d , , 6 l M M M d t M N N l 8 , d d M B n 6 6 f A l - = & ",
"> = 4.6.h.*.j w.w.p.V o > =  .f.f.s.s.( P y.g.g.f.=.9 o o h y.y.j j | f.0.q ; - ",
"= - 6.5.f.*.j w.q.p.C o = =  .f.f.d.s.( I y.f.g.f.*.9 + + h y.y.j j ` f.q.2 2 = ",
"= ; y.u.n.2.B s.s.,.% q 9 9 ;.n.n.b.b.@.Q x.n.n.n.6.g r y % X.d.n n O.n.d.7 7 = ",
"< * t.t.n.2.x N C % ~ t.j j ;.n.n.b.b.@.Q z.n.n.n.6.l r.r.X.O z f g @.n.s.; 2 = ",
"> * ~ ~ g.;.0 O + u p.p.j h %.c.c.l.l.[ R f.c.c.c.<.t y.y.f.b O ; =  .j.} + O = ",
"> = - ; h h 5 ; 1 f F M 6 6 t M A F F t 0 c A A A g 4 c x Z x < > > f x 1 % % & ",
"= * ; ; j h 5 ; < d H M 6 6 f N A Z D t 9 N Z A N g 5 l c A l < > > s j = & % & ",
"1 * O o O & 6  . .*.*. .d 9 H *.=.*.&.D c +.=.*.*.U e ] ] *.=.X.f t > O X X . & ",
"4 &     O O 0 s.a.n.n.k.j j ;.n.n.b.b.@.W x.n.n.n.6.l d.d.n.n.h.x c - X . . . & ",
"4 %       o 1 / / i.f.q.g h  .d.g.p.p._ Y y.g.d.f.=.j 9.9.d.d.} 5 3 *         & ",
"$ O X X X @ > ; < w w 3 = = 1 7 w 3 3 < < 8 w t r < , 8 3 8 w < > > & O . . . # ",
"$ @ X X X @ = & - 9 t 3 = = 4 7 9 3 3 < < 8 w w w 2 1 8 3 8 w 2 > > * O . . . & ",
"$ * $ $ : 4 4 4 5 6 6 > > = > = > : : # : 5 5 6 4 4 , , , > 4 6 1 4 , $ $ % & % "
};
